Comme-Regular.ufo
<glyph name="exclam" format="1">
  <advance width="715"/>
  <unicode hex="0021"/>
  <outline>
    <contour>
      <point x="348" y="-13" type="curve" smooth="yes"/>
      <point x="429" y="-13"/>
      <point x="467" y="47"/>
      <point x="467" y="110" type="curve" smooth="yes"/>
      <point x="467" y="170"/>
      <point x="429" y="231"/>
      <point x="348" y="231" type="curve" smooth="yes"/>
      <point x="267" y="231"/>
      <point x="229" y="170"/>
      <point x="229" y="110" type="curve" smooth="yes"/>
      <point x="229" y="49"/>
      <point x="267" y="-13"/>
    </contour>
    <contour>
      <point x="312" y="433" type="line"/>
      <point x="384" y="433" type="line"/>
      <point x="437" y="1334" type="line"/>
      <point x="437" y="1467" type="line"/>
      <point x="253" y="1467" type="line"/>
      <point x="253" y="1334" type="line"/>
    </contour>
  </outline>
</glyph>
<glyph name="numbersign" format="1">
  <advance width="1159"/>
  <unicode hex="0023"/>
  <outline>
    <contour>
      <point x="389" y="539" type="line"/>
      <point x="480" y="988" type="line"/>
      <point x="776" y="988" type="line"/>
      <point x="686" y="539" type="line"/>
    </contour>
    <contour>
      <point x="168" y="-18" type="line"/>
      <point x="278" y="-18" type="line"/>
      <point x="370" y="442" type="line"/>
      <point x="666" y="442" type="line"/>
      <point x="575" y="-18" type="line"/>
      <point x="683" y="-18" type="line"/>
      <point x="775" y="442" type="line"/>
      <point x="1000" y="442" type="line"/>
      <point x="1015" y="539" type="line"/>
      <point x="795" y="539" type="line"/>
      <point x="885" y="988" type="line"/>
      <point x="1094" y="988" type="line"/>
      <point x="1110" y="1083" type="line"/>
      <point x="904" y="1083" type="line"/>
      <point x="1003" y="1550" type="line"/>
      <point x="896" y="1550" type="line"/>
      <point x="796" y="1083" type="line"/>
      <point x="500" y="1083" type="line"/>
      <point x="599" y="1550" type="line"/>
      <point x="488" y="1550" type="line"/>
      <point x="388" y="1083" type="line"/>
      <point x="186" y="1083" type="line"/>
      <point x="173" y="988" type="line"/>
      <point x="369" y="988" type="line"/>
      <point x="279" y="539" type="line"/>
      <point x="78" y="539" type="line"/>
      <point x="65" y="442" type="line"/>
      <point x="260" y="442" type="line"/>
    </contour>
  </outline>
</glyph>
<glyph name="dollar" format="1">
  <advance width="1222"/>
  <unicode hex="0024"/>
  <outline>
    <component base="S"/>
    <contour>
      <point x="546" y="43" type="line"/>
      <point x="546" y="-296" type="line"/>
      <point x="668" y="-296" type="line"/>
      <point x="683" y="43" type="line"/>
    </contour>
    <contour>
      <point x="563" y="1766" type="line"/>
      <point x="547" y="1427" type="line"/>
      <point x="690" y="1427" type="line"/>
      <point x="690" y="1766" type="line"/>
    </contour>
  </outline>
</glyph>
<glyph name="ampersand" format="1">
  <advance width="1420"/>
  <unicode hex="0026"/>
  <outline>
    <contour>
      <point x="600" y="1353" type="curve" smooth="yes"/>
      <point x="730" y="1353"/>
      <point x="798" y="1284"/>
      <point x="798" y="1165" type="curve" smooth="yes"/>
      <point x="798" y="1014"/>
      <point x="665" y="933"/>
      <point x="524" y="858" type="curve"/>
      <point x="412" y="989"/>
      <point x="376" y="1068"/>
      <point x="376" y="1162" type="curve" smooth="yes"/>
      <point x="376" y="1276"/>
      <point x="473" y="1353"/>
    </contour>
    <contour>
      <point x="94" y="393" type="curve" smooth="yes"/>
      <point x="94" y="150"/>
      <point x="270" y="-20"/>
      <point x="551" y="-20" type="curve" smooth="yes"/>
      <point x="746" y="-20"/>
      <point x="893" y="60"/>
      <point x="1008" y="171" type="curve"/>
      <point x="1202" y="-22" type="line"/>
      <point x="1299" y="80" type="line"/>
      <point x="1101" y="276" type="line"/>
      <point x="1209" y="415"/>
      <point x="1282" y="575"/>
      <point x="1340" y="689" type="curve"/>
      <point x="1228" y="762" type="line"/>
      <point x="1142" y="597"/>
      <point x="1068" y="472"/>
      <point x="998" y="378" type="curve"/>
      <point x="609" y="763" type="line"/>
      <point x="781" y="856"/>
      <point x="957" y="958"/>
      <point x="957" y="1170" type="curve" smooth="yes"/>
      <point x="957" y="1375"/>
      <point x="803" y="1482"/>
      <point x="600" y="1482" type="curve" smooth="yes"/>
      <point x="381" y="1482"/>
      <point x="222" y="1354"/>
      <point x="222" y="1159" type="curve" smooth="yes"/>
      <point x="222" y="1035"/>
      <point x="270" y="923"/>
      <point x="396" y="792" type="curve"/>
      <point x="209" y="697"/>
      <point x="94" y="599"/>
    </contour>
    <contour>
      <point x="575" y="122" type="curve" smooth="yes"/>
      <point x="376" y="122"/>
      <point x="263" y="228"/>
      <point x="263" y="402" type="curve" smooth="yes"/>
      <point x="263" y="544"/>
      <point x="344" y="621"/>
      <point x="482" y="695" type="curve"/>
      <point x="908" y="271" type="line"/>
      <point x="800" y="160"/>
      <point x="698" y="122"/>
    </contour>
  </outline>
</glyph>
<glyph name="quotesingle" format="1">
  <advance width="415"/>
  <unicode hex="0027"/>
  <outline>
    <contour>
      <point x="152" y="957" type="line"/>
      <point x="256" y="957" type="line"/>
      <point x="284" y="1503" type="line"/>
      <point x="103" y="1503" type="line"/>
    </contour>
  </outline>
</glyph>
<glyph name="asterisk" format="1">
  <advance width="947"/>
  <unicode hex="002A"/>
  <outline>
    <contour>
      <point x="294" y="588" type="line"/>
      <point x="472" y="925" type="line"/>
      <point x="663" y="588" type="line"/>
      <point x="714" y="620"/>
      <point x="749" y="642"/>
      <point x="800" y="674" type="curve"/>
      <point x="716" y="781"/>
      <point x="602" y="934"/>
      <point x="563" y="985" type="curve"/>
      <point x="908" y="1062" type="line"/>
      <point x="864" y="1219" type="line"/>
      <point x="525" y="1078" type="line"/>
      <point x="561" y="1462" type="line"/>
      <point x="393" y="1462" type="line"/>
      <point x="427" y="1078" type="line"/>
      <point x="91" y="1219" type="line"/>
      <point x="46" y="1062" type="line"/>
      <point x="387" y="985" type="line"/>
      <point x="155" y="674" type="line"/>
    </contour>
  </outline>
</glyph>
<glyph name="plus" format="1">
  <advance width="1141"/>
  <unicode hex="002B"/>
  <outline>
    <contour>
      <point x="476" y="1163" type="line"/>
      <point x="476" y="785" type="line"/>
      <point x="117" y="785" type="line"/>
      <point x="117" y="612" type="line"/>
      <point x="475" y="612" type="line"/>
      <point x="475" y="228" type="line"/>
      <point x="654" y="228" type="line"/>
      <point x="654" y="612" type="line"/>
      <point x="1009" y="612" type="line"/>
      <point x="1009" y="785" type="line"/>
      <point x="654" y="785" type="line"/>
      <point x="654" y="1163" type="line"/>
    </contour>
  </outline>
</glyph>
<glyph name="comma" format="1">
  <advance width="629"/>
  <unicode hex="002C"/>
  <outline>
    <contour>
      <point x="193" y="-305" type="curve"/>
      <point x="300" y="-305" type="line"/>
      <point x="418" y="148" type="line"/>
      <point x="418" y="239" type="line"/>
      <point x="234" y="239" type="line"/>
      <point x="234" y="233"/>
      <point x="193" y="-305"/>
    </contour>
  </outline>
</glyph>
<glyph name="period" format="1">
  <advance width="634"/>
  <unicode hex="002E"/>
  <outline>
    <contour>
      <point x="320" y="-11" type="curve" smooth="yes"/>
      <point x="392" y="-11"/>
      <point x="426" y="33"/>
      <point x="426" y="112" type="curve" smooth="yes"/>
      <point x="426" y="189"/>
      <point x="392" y="232"/>
      <point x="320" y="232" type="curve" smooth="yes"/>
      <point x="244" y="232"/>
      <point x="212" y="189"/>
      <point x="212" y="112" type="curve" smooth="yes"/>
      <point x="212" y="33"/>
      <point x="244" y="-11"/>
    </contour>
  </outline>
</glyph>
<glyph name="zero" format="1">
  <advance width="1260"/>
  <unicode hex="0030"/>
  <outline>
    <contour>
      <point x="635" y="-20" type="curve" smooth="yes"/>
      <point x="981" y="-20"/>
      <point x="1129" y="260"/>
      <point x="1129" y="705" type="curve" smooth="yes"/>
      <point x="1129" y="1172"/>
      <point x="966" y="1476"/>
      <point x="635" y="1476" type="curve" smooth="yes"/>
      <point x="303" y="1476"/>
      <point x="131" y="1171"/>
      <point x="131" y="705" type="curve" smooth="yes"/>
      <point x="131" y="260"/>
      <point x="288" y="-20"/>
    </contour>
    <contour>
      <point x="635" y="135" type="curve" smooth="yes"/>
      <point x="439" y="135"/>
      <point x="317" y="296"/>
      <point x="317" y="710" type="curve" smooth="yes"/>
      <point x="317" y="1106"/>
      <point x="439" y="1322"/>
      <point x="635" y="1322" type="curve" smooth="yes"/>
      <point x="830" y="1322"/>
      <point x="943" y="1132"/>
      <point x="943" y="711" type="curve" smooth="yes"/>
      <point x="943" y="296"/>
      <point x="830" y="135"/>
    </contour>
  </outline>
</glyph>
<glyph name="one" format="1">
  <advance width="1260"/>
  <unicode hex="0031"/>
  <outline>
    <contour>
      <point x="198" y="0" type="line"/>
      <point x="1120" y="0" type="line"/>
      <point x="1120" y="135" type="line"/>
      <point x="773" y="135" type="line"/>
      <point x="773" y="1456" type="line"/>
      <point x="604" y="1456" type="line"/>
      <point x="525" y="1400"/>
      <point x="297" y="1318"/>
      <point x="209" y="1298" type="curve"/>
      <point x="209" y="1153" type="line"/>
      <point x="286" y="1164"/>
      <point x="475" y="1226"/>
      <point x="587" y="1287" type="curve"/>
      <point x="587" y="135" type="line"/>
      <point x="198" y="135" type="line"/>
    </contour>
  </outline>
</glyph>
<glyph name="two" format="1">
  <advance width="1260"/>
  <unicode hex="0032"/>
  <outline>
    <contour>
      <point x="267" y="1188" type="line"/>
      <point x="342" y="1273"/>
      <point x="471" y="1323"/>
      <point x="594" y="1323" type="curve" smooth="yes"/>
      <point x="747" y="1323"/>
      <point x="889" y="1242"/>
      <point x="889" y="1054" type="curve" smooth="yes"/>
      <point x="889" y="894"/>
      <point x="827" y="828"/>
      <point x="686" y="690" type="curve" smooth="yes"/>
      <point x="146" y="159" type="line"/>
      <point x="175" y="0" type="line"/>
      <point x="1038" y="0" type="line"/>
      <point x="1047" y="152" type="line"/>
      <point x="358" y="152" type="line"/>
      <point x="797" y="571" type="line" smooth="yes"/>
      <point x="994" y="759"/>
      <point x="1065" y="857"/>
      <point x="1065" y="1059" type="curve" smooth="yes"/>
      <point x="1065" y="1337"/>
      <point x="848" y="1476"/>
      <point x="597" y="1476" type="curve" smooth="yes"/>
      <point x="427" y="1476"/>
      <point x="260" y="1409"/>
      <point x="159" y="1294" type="curve"/>
      <point x="248" y="1188" type="line"/>
    </contour>
  </outline>
</glyph>
<glyph name="three" format="1">
  <advance width="1246"/>
  <unicode hex="0033"/>
  <outline>
    <contour>
      <point x="772" y="770" type="curve"/>
      <point x="956" y="812"/>
      <point x="1042" y="933"/>
      <point x="1042" y="1097" type="curve" smooth="yes"/>
      <point x="1042" y="1327"/>
      <point x="890" y="1476"/>
      <point x="625" y="1476" type="curve" smooth="yes"/>
      <point x="489" y="1476"/>
      <point x="267" y="1433"/>
      <point x="169" y="1229" type="curve"/>
      <point x="275" y="1144" type="line"/>
      <point x="295" y="1144" type="line"/>
      <point x="374" y="1274"/>
      <point x="483" y="1322"/>
      <point x="609" y="1322" type="curve" smooth="yes"/>
      <point x="624" y="1322" type="line" smooth="yes"/>
      <point x="785" y="1322"/>
      <point x="864" y="1234"/>
      <point x="864" y="1095" type="curve" smooth="yes"/>
      <point x="864" y="1082" type="line" smooth="yes"/>
      <point x="864" y="867"/>
      <point x="664" y="837"/>
      <point x="503" y="837" type="curve" smooth="yes"/>
      <point x="428" y="837" type="line"/>
      <point x="453" y="688" type="line"/>
      <point x="502" y="688" type="line" smooth="yes"/>
      <point x="761" y="688"/>
      <point x="901" y="621"/>
      <point x="901" y="391" type="curve" smooth="yes"/>
      <point x="901" y="215"/>
      <point x="775" y="134"/>
      <point x="616" y="134" type="curve" smooth="yes"/>
      <point x="515" y="134"/>
      <point x="375" y="168"/>
      <point x="295" y="297" type="curve"/>
      <point x="281" y="297" type="line"/>
      <point x="175" y="210" type="line"/>
      <point x="273" y="37"/>
      <point x="463" y="-20"/>
      <point x="619" y="-20" type="curve" smooth="yes"/>
      <point x="919" y="-20"/>
      <point x="1083" y="165"/>
      <point x="1083" y="384" type="curve" smooth="yes"/>
      <point x="1083" y="583"/>
      <point x="977" y="734"/>
    </contour>
  </outline>
</glyph>
<glyph name="six" format="1">
  <advance width="1260"/>
  <unicode hex="0036"/>
  <outline>
    <contour>
      <point x="648" y="124" type="curve" smooth="yes"/>
      <point x="453" y="124"/>
      <point x="348" y="271"/>
      <point x="348" y="440" type="curve" smooth="yes"/>
      <point x="348" y="675"/>
      <point x="525" y="754"/>
      <point x="653" y="754" type="curve" smooth="yes"/>
      <point x="842" y="754"/>
      <point x="949" y="623"/>
      <point x="949" y="445" type="curve" smooth="yes"/>
      <point x="949" y="275"/>
      <point x="843" y="124"/>
    </contour>
    <contour>
      <point x="651" y="-20" type="curve" smooth="yes"/>
      <point x="944" y="-20"/>
      <point x="1128" y="186"/>
      <point x="1128" y="445" type="curve" smooth="yes"/>
      <point x="1128" y="716"/>
      <point x="946" y="892"/>
      <point x="717" y="892" type="curve" smooth="yes"/>
      <point x="596" y="892"/>
      <point x="508" y="843"/>
      <point x="444" y="788" type="curve"/>
      <point x="601" y="1004"/>
      <point x="759" y="1219"/>
      <point x="917" y="1434" type="curve"/>
      <point x="917" y="1456" type="line"/>
      <point x="723" y="1456" type="line"/>
      <point x="383" y="991" type="line" smooth="yes"/>
      <point x="248" y="807"/>
      <point x="170" y="665"/>
      <point x="170" y="450" type="curve" smooth="yes"/>
      <point x="170" y="202"/>
      <point x="345" y="-20"/>
    </contour>
  </outline>
</glyph>
<glyph name="seven" format="1">
  <advance width="1260"/>
  <unicode hex="0037"/>
  <outline>
    <contour>
      <point x="344" y="0" type="line"/>
      <point x="530" y="0" type="line"/>
      <point x="1075" y="1323" type="line"/>
      <point x="1075" y="1456" type="line"/>
      <point x="170" y="1456" type="line"/>
      <point x="189" y="1308" type="line"/>
      <point x="881" y="1308" type="line"/>
    </contour>
  </outline>
</glyph>
<glyph name="colon" format="1">
  <advance width="658"/>
  <unicode hex="003A"/>
  <outline>
    <contour>
      <point x="326" y="-10" type="curve" smooth="yes"/>
      <point x="409" y="-10"/>
      <point x="448" y="50"/>
      <point x="448" y="116" type="curve" smooth="yes"/>
      <point x="448" y="181"/>
      <point x="409" y="243"/>
      <point x="326" y="243" type="curve" smooth="yes"/>
      <point x="242" y="243"/>
      <point x="200" y="181"/>
      <point x="200" y="116" type="curve" smooth="yes"/>
      <point x="200" y="50"/>
      <point x="243" y="-10"/>
    </contour>
    <contour>
      <point x="326" y="833" type="curve" smooth="yes"/>
      <point x="409" y="833"/>
      <point x="448" y="893"/>
      <point x="448" y="959" type="curve" smooth="yes"/>
      <point x="448" y="1024"/>
      <point x="409" y="1086"/>
      <point x="326" y="1086" type="curve" smooth="yes"/>
      <point x="242" y="1086"/>
      <point x="200" y="1024"/>
      <point x="200" y="959" type="curve" smooth="yes"/>
      <point x="200" y="893"/>
      <point x="243" y="833"/>
    </contour>
  </outline>
</glyph>
<glyph name="semicolon" format="1">
  <advance width="715"/>
  <unicode hex="003B"/>
  <outline>
    <contour>
      <point x="373" y="832" type="curve" smooth="yes"/>
      <point x="456" y="832"/>
      <point x="495" y="892"/>
      <point x="495" y="958" type="curve" smooth="yes"/>
      <point x="495" y="1023"/>
      <point x="456" y="1085"/>
      <point x="373" y="1085" type="curve" smooth="yes"/>
      <point x="289" y="1085"/>
      <point x="247" y="1023"/>
      <point x="247" y="958" type="curve" smooth="yes"/>
      <point x="247" y="892"/>
      <point x="290" y="832"/>
    </contour>
    <contour>
      <point x="248" y="-305" type="curve"/>
      <point x="355" y="-305" type="line"/>
      <point x="472" y="148" type="line"/>
      <point x="472" y="239" type="line"/>
      <point x="288" y="239" type="line"/>
      <point x="288" y="233"/>
      <point x="248" y="-305"/>
    </contour>
  </outline>
</glyph>
<glyph name="greater" format="1">
  <advance width="1107"/>
  <unicode hex="003E"/>
  <outline>
    <contour>
      <point x="94" y="1033" type="line"/>
      <point x="817" y="648" type="line"/>
      <point x="92" y="300" type="line"/>
      <point x="92" y="145" type="line"/>
      <point x="1024" y="595" type="line"/>
      <point x="1024" y="689" type="line"/>
      <point x="94" y="1185" type="line"/>
    </contour>
  </outline>
</glyph>
<glyph name="at" format="1">
  <advance width="1940"/>
  <unicode hex="0040"/>
  <outline>
    <contour>
      <point x="899" y="337" type="curve" smooth="yes"/>
      <point x="778" y="337"/>
      <point x="729" y="433"/>
      <point x="729" y="580" type="curve" smooth="yes"/>
      <point x="729" y="803"/>
      <point x="855" y="971"/>
      <point x="1036" y="971" type="curve" smooth="yes"/>
      <point x="1065" y="971"/>
      <point x="1127" y="962"/>
      <point x="1171" y="952" type="curve"/>
      <point x="1129" y="696" type="line"/>
      <point x="1097" y="492"/>
      <point x="1048" y="337"/>
    </contour>
    <contour>
      <point x="946" y="-195" type="curve" smooth="yes"/>
      <point x="1139" y="-195"/>
      <point x="1335" y="-146"/>
      <point x="1463" y="-57" type="curve"/>
      <point x="1419" y="52" type="line"/>
      <point x="1284" y="-34"/>
      <point x="1114" y="-65"/>
      <point x="949" y="-65" type="curve" smooth="yes"/>
      <point x="533" y="-65"/>
      <point x="302" y="212"/>
      <point x="302" y="611" type="curve" smooth="yes"/>
      <point x="302" y="1030"/>
      <point x="573" y="1359"/>
      <point x="1006" y="1359" type="curve" smooth="yes"/>
      <point x="1433" y="1359"/>
      <point x="1640" y="1094"/>
      <point x="1640" y="761" type="curve" smooth="yes"/>
      <point x="1640" y="487"/>
      <point x="1517" y="347"/>
      <point x="1402" y="347" type="curve" smooth="yes"/>
      <point x="1330" y="347"/>
      <point x="1274" y="406"/>
      <point x="1274" y="488" type="curve" smooth="yes"/>
      <point x="1274" y="614"/>
      <point x="1311" y="802"/>
      <point x="1339" y="1008" type="curve"/>
      <point x="1254" y="1052"/>
      <point x="1121" y="1083"/>
      <point x="1020" y="1083" type="curve" smooth="yes"/>
      <point x="733" y="1083"/>
      <point x="580" y="825"/>
      <point x="580" y="573" type="curve" smooth="yes"/>
      <point x="580" y="373"/>
      <point x="688" y="216"/>
      <point x="882" y="216" type="curve" smooth="yes"/>
      <point x="1022" y="216"/>
      <point x="1115" y="324"/>
      <point x="1164" y="436" type="curve"/>
      <point x="1194" y="304"/>
      <point x="1337" y="279"/>
      <point x="1402" y="221" type="curve"/>
      <point x="1576" y="221"/>
      <point x="1777" y="401"/>
      <point x="1777" y="753" type="curve" smooth="yes"/>
      <point x="1777" y="1202"/>
      <point x="1445" y="1486"/>
      <point x="1013" y="1486" type="curve" smooth="yes"/>
      <point x="513" y="1486"/>
      <point x="147" y="1115"/>
      <point x="147" y="615" type="curve" smooth="yes"/>
      <point x="147" y="111"/>
      <point x="474" y="-195"/>
    </contour>
  </outline>
</glyph>
<glyph name="B" format="1">
  <advance width="1373"/>
  <unicode hex="0042"/>
  <outline>
    <contour>
      <point x="658" y="1456" type="move" name="top"/>
    </contour>
    <contour>
      <point x="557" y="-9" type="curve" smooth="yes"/>
      <point x="1047" y="-9"/>
      <point x="1242" y="120"/>
      <point x="1242" y="432" type="curve" smooth="yes"/>
      <point x="1242" y="612"/>
      <point x="1157" y="738"/>
      <point x="942" y="790" type="curve"/>
      <point x="1127" y="850"/>
      <point x="1190" y="965"/>
      <point x="1190" y="1098" type="curve" smooth="yes"/>
      <point x="1190" y="1257"/>
      <point x="1155" y="1464"/>
      <point x="622" y="1464" type="curve" smooth="yes"/>
      <point x="507" y="1464"/>
      <point x="368" y="1455"/>
      <point x="203" y="1434" type="curve"/>
      <point x="203" y="8" type="line"/>
      <point x="335" y="-3"/>
      <point x="453" y="-9"/>
    </contour>
    <contour>
      <point x="397" y="1314" type="line"/>
      <point x="485" y="1323"/>
      <point x="564" y="1327"/>
      <point x="631" y="1327" type="curve" smooth="yes"/>
      <point x="920" y="1327"/>
      <point x="1011" y="1246"/>
      <point x="1011" y="1085" type="curve" smooth="yes"/>
      <point x="1011" y="889"/>
      <point x="853" y="851"/>
      <point x="668" y="851" type="curve" smooth="yes"/>
      <point x="397" y="851" type="line"/>
    </contour>
    <contour>
      <point x="397" y="717" type="line"/>
      <point x="657" y="717" type="line" smooth="yes"/>
      <point x="930" y="717"/>
      <point x="1049" y="635"/>
      <point x="1049" y="427" type="curve" smooth="yes"/>
      <point x="1049" y="265"/>
      <point x="1015" y="135"/>
      <point x="590" y="135" type="curve" smooth="yes"/>
      <point x="532" y="135"/>
      <point x="467" y="138"/>
      <point x="397" y="143" type="curve"/>
    </contour>
  </outline>
</glyph>
<glyph name="C" format="1">
  <advance width="1433"/>
  <unicode hex="0043"/>
  <outline>
    <contour>
      <point x="791" y="1" type="move" name="bot"/>
    </contour>
    <contour>
      <point x="775" y="1456" type="move" name="top"/>
    </contour>
    <contour>
      <point x="1341" y="1097" type="line"/>
      <point x="1288" y="1352"/>
      <point x="1043" y="1478"/>
      <point x="801" y="1478" type="curve" smooth="yes"/>
      <point x="412" y="1478"/>
      <point x="152" y="1205"/>
      <point x="152" y="729" type="curve" smooth="yes"/>
      <point x="152" y="253"/>
      <point x="412" y="-20"/>
      <point x="801" y="-20" type="curve" smooth="yes"/>
      <point x="1045" y="-20"/>
      <point x="1292" y="106"/>
      <point x="1345" y="361" type="curve"/>
      <point x="1205" y="412" type="line"/>
      <point x="1189" y="412" type="line"/>
      <point x="1153" y="252"/>
      <point x="997" y="133"/>
      <point x="814" y="133" type="curve" smooth="yes"/>
      <point x="535" y="133"/>
      <point x="350" y="332"/>
      <point x="350" y="729" type="curve" smooth="yes"/>
      <point x="350" y="1126"/>
      <point x="533" y="1324"/>
      <point x="814" y="1324" type="curve" smooth="yes"/>
      <point x="997" y="1324"/>
      <point x="1149" y="1208"/>
      <point x="1185" y="1046" type="curve"/>
      <point x="1201" y="1046" type="line"/>
    </contour>
  </outline>
</glyph>
<glyph name="D" format="1">
  <advance width="1500"/>
  <unicode hex="0044"/>
  <outline>
    <contour>
      <point x="778" y="-1" type="move" name="bot"/>
    </contour>
    <contour>
      <point x="742" y="1456" type="move" name="top"/>
    </contour>
    <contour>
      <point x="203" y="10" type="line"/>
      <point x="314" y="-4"/>
      <point x="416" y="-11"/>
      <point x="509" y="-11" type="curve" smooth="yes"/>
      <point x="1138" y="-11"/>
      <point x="1347" y="297"/>
      <point x="1347" y="745" type="curve" smooth="yes"/>
      <point x="1347" y="1175"/>
      <point x="1201" y="1462"/>
      <point x="581" y="1462" type="curve" smooth="yes"/>
      <point x="471" y="1462"/>
      <point x="345" y="1453"/>
      <point x="203" y="1434" type="curve"/>
    </contour>
    <contour>
      <point x="397" y="135" type="curve"/>
      <point x="397" y="1313" type="line"/>
      <point x="471" y="1321"/>
      <point x="537" y="1325"/>
      <point x="598" y="1325" type="curve" smooth="yes"/>
      <point x="1053" y="1325"/>
      <point x="1154" y="1098"/>
      <point x="1154" y="740" type="curve" smooth="yes"/>
      <point x="1154" y="383"/>
      <point x="1038" y="126"/>
      <point x="560" y="126" type="curve" smooth="yes"/>
      <point x="510" y="126"/>
      <point x="455" y="129"/>
    </contour>
  </outline>
</glyph>
<glyph name="F" format="1">
  <advance width="1203"/>
  <unicode hex="0046"/>
  <outline>
    <contour>
      <point x="738" y="1456" type="move" name="top"/>
    </contour>
    <contour>
      <point x="203" y="1456" type="line"/>
      <point x="203" y="0" type="line"/>
      <point x="397" y="0" type="line"/>
      <point x="397" y="659" type="line"/>
      <point x="1048" y="659" type="line"/>
      <point x="1048" y="801" type="line"/>
      <point x="397" y="801" type="line"/>
      <point x="397" y="1307" type="line"/>
      <point x="1160" y="1307" type="line"/>
      <point x="1170" y="1456" type="line"/>
    </contour>
  </outline>
</glyph>
<glyph name="H" format="1">
  <advance width="1541"/>
  <unicode hex="0048"/>
  <outline>
    <contour>
      <point x="784" y="1456" type="move" name="top"/>
    </contour>
    <contour>
      <point x="1140" y="673" type="line"/>
      <point x="1140" y="-1" type="line"/>
      <point x="1335" y="-1" type="line"/>
      <point x="1335" y="1456" type="line"/>
      <point x="1140" y="1456" type="line"/>
      <point x="1140" y="825" type="line"/>
      <point x="401" y="825" type="line"/>
      <point x="401" y="1456" type="line"/>
      <point x="207" y="1456" type="line"/>
      <point x="207" y="-1" type="line"/>
      <point x="401" y="-1" type="line"/>
      <point x="401" y="673" type="line"/>
    </contour>
  </outline>
</glyph>
<glyph name="I" format="1">
  <advance width="973"/>
  <unicode hex="0049"/>
  <outline>
    <contour>
      <point x="483" y="1456" type="move" name="top"/>
    </contour>
    <contour>
      <point x="191" y="1456" type="line"/>
      <point x="191" y="1338" type="line"/>
      <point x="385" y="1338" type="line"/>
      <point x="385" y="118" type="line"/>
      <point x="191" y="118" type="line"/>
      <point x="191" y="-1" type="line"/>
      <point x="772" y="-1" type="line"/>
      <point x="772" y="118" type="line"/>
      <point x="580" y="118" type="line"/>
      <point x="580" y="1338" type="line"/>
      <point x="772" y="1338" type="line"/>
      <point x="772" y="1456" type="line"/>
    </contour>
  </outline>
</glyph>
<glyph name="J" format="1">
  <advance width="797"/>
  <unicode hex="004A"/>
  <outline>
    <contour>
      <point x="473" y="1456" type="move" name="top"/>
    </contour>
    <contour>
      <point x="370" y="1456" type="line"/>
      <point x="370" y="30" type="line" smooth="yes"/>
      <point x="370" y="-146"/>
      <point x="364" y="-171"/>
      <point x="260" y="-214" type="curve" smooth="yes"/>
      <point x="137" y="-266" type="line"/>
      <point x="197" y="-412" type="line"/>
      <point x="286" y="-380" type="line"/>
      <point x="519" y="-295"/>
      <point x="565" y="-243"/>
      <point x="565" y="29" type="curve" smooth="yes"/>
      <point x="565" y="1456" type="line"/>
    </contour>
  </outline>
</glyph>
<glyph name="L" format="1">
  <advance width="1103"/>
  <unicode hex="004C"/>
  <outline>
    <contour>
      <point x="635" y="0" type="move" name="bot"/>
    </contour>
    <contour>
      <point x="443" y="1456" type="move" name="top"/>
    </contour>
    <contour>
      <point x="203" y="1456" type="line"/>
      <point x="203" y="0" type="line"/>
      <point x="1095" y="0" type="line"/>
      <point x="1101" y="146" type="line"/>
      <point x="397" y="146" type="line"/>
      <point x="397" y="1456" type="line"/>
    </contour>
  </outline>
</glyph>
<glyph name="O" format="1">
  <advance width="1620"/>
  <unicode hex="004F"/>
  <outline>
    <contour>
      <point x="813" y="1456" type="move" name="top"/>
    </contour>
    <contour>
      <point x="1267" y="720" type="curve" smooth="yes"/>
      <point x="1267" y="370"/>
      <point x="1148" y="134"/>
      <point x="811" y="134" type="curve" smooth="yes"/>
      <point x="475" y="134"/>
      <point x="354" y="370"/>
      <point x="354" y="720" type="curve" smooth="yes"/>
      <point x="354" y="1085"/>
      <point x="486" y="1322"/>
      <point x="813" y="1322" type="curve" smooth="yes"/>
      <point x="1141" y="1322"/>
      <point x="1267" y="1083"/>
    </contour>
    <contour>
      <point x="156" y="721" type="curve" smooth="yes"/>
      <point x="156" y="267"/>
      <point x="365" y="-20"/>
      <point x="813" y="-20" type="curve" smooth="yes"/>
      <point x="1256" y="-20"/>
      <point x="1464" y="272"/>
      <point x="1464" y="719" type="curve" smooth="yes"/>
      <point x="1464" y="1183"/>
      <point x="1245" y="1476"/>
      <point x="814" y="1476" type="curve" smooth="yes"/>
      <point x="374" y="1476"/>
      <point x="156" y="1185"/>
    </contour>
  </outline>
</glyph>
<glyph name="Q" format="1">
  <advance width="1597"/>
  <unicode hex="0051"/>
  <outline>
    <component base="O"/>
    <contour>
      <point x="824" y="38" type="line"/>
      <point x="826" y="29"/>
      <point x="1150" y="-428"/>
      <point x="1165" y="-441" type="curve"/>
      <point x="1290" y="-351" type="line"/>
      <point x="1275" y="-338"/>
      <point x="998" y="53"/>
      <point x="990" y="66" type="curve"/>
    </contour>
  </outline>
</glyph>
<glyph name="R" format="1">
  <advance width="1353"/>
  <unicode hex="0052"/>
  <outline>
    <contour>
      <point x="720" y="0" type="move" name="bot"/>
    </contour>
    <contour>
      <point x="713" y="1456" type="move" name="top"/>
    </contour>
    <contour>
      <point x="1241" y="1071" type="curve" smooth="yes"/>
      <point x="1241" y="1349"/>
      <point x="1088" y="1464"/>
      <point x="666" y="1464" type="curve" smooth="yes"/>
      <point x="539" y="1464"/>
      <point x="387" y="1454"/>
      <point x="207" y="1434" type="curve"/>
      <point x="207" y="0" type="line"/>
      <point x="401" y="0" type="line"/>
      <point x="401" y="662" type="line"/>
      <point x="736" y="663" type="line"/>
      <point x="1072" y="0" type="line"/>
      <point x="1279" y="0" type="line"/>
      <point x="1279" y="20" type="line"/>
      <point x="930" y="685" type="line"/>
      <point x="1125" y="734"/>
      <point x="1241" y="852"/>
    </contour>
    <contour>
      <point x="666" y="1326" type="curve" smooth="yes"/>
      <point x="994" y="1326"/>
      <point x="1062" y="1239"/>
      <point x="1062" y="1067" type="curve" smooth="yes"/>
      <point x="1062" y="874"/>
      <point x="983" y="796"/>
      <point x="655" y="796" type="curve" smooth="yes"/>
      <point x="401" y="796" type="line"/>
      <point x="401" y="1312" type="line"/>
      <point x="504" y="1321"/>
      <point x="592" y="1326"/>
    </contour>
  </outline>
</glyph>
<glyph name="U" format="1">
  <advance width="1455"/>
  <unicode hex="0055"/>
  <outline>
    <contour>
      <point x="723" y="1" type="move" name="bot"/>
    </contour>
    <contour>
      <point x="736" y="1456" type="move" name="top"/>
    </contour>
    <contour>
      <point x="1085" y="1457" type="line"/>
      <point x="1085" y="547" type="line" smooth="yes"/>
      <point x="1085" y="277"/>
      <point x="978" y="135"/>
      <point x="725" y="135" type="curve" smooth="yes"/>
      <point x="463" y="135"/>
      <point x="365" y="277"/>
      <point x="365" y="547" type="curve" smooth="yes"/>
      <point x="365" y="1457" type="line"/>
      <point x="170" y="1457" type="line"/>
      <point x="170" y="542" type="line" smooth="yes"/>
      <point x="170" y="209"/>
      <point x="335" y="-20"/>
      <point x="725" y="-20" type="curve" smooth="yes"/>
      <point x="1111" y="-20"/>
      <point x="1280" y="214"/>
      <point x="1280" y="539" type="curve" smooth="yes"/>
      <point x="1280" y="1457" type="line"/>
    </contour>
  </outline>
</glyph>
<glyph name="V" format="1">
  <advance width="1442"/>
  <unicode hex="0056"/>
  <outline>
    <contour>
      <point x="624" y="-1" type="line"/>
      <point x="803" y="-1" type="line"/>
      <point x="1365" y="1456" type="line"/>
      <point x="1158" y="1456" type="line"/>
      <point x="1010" y="1045"/>
      <point x="858" y="638"/>
      <point x="715" y="222" type="curve"/>
      <point x="574" y="639"/>
      <point x="422" y="1045"/>
      <point x="274" y="1456" type="curve"/>
      <point x="77" y="1456" type="line"/>
    </contour>
  </outline>
</glyph>
<glyph name="W" format="1">
  <advance width="1979"/>
  <unicode hex="0057"/>
  <outline>
    <contour>
      <point x="996" y="0" type="move" name="bot"/>
    </contour>
    <contour>
      <point x="1001" y="1456" type="move" name="top"/>
    </contour>
    <contour>
      <point x="999" y="1191" type="line"/>
      <point x="1337" y="0" type="line"/>
      <point x="1524" y="0" type="line"/>
      <point x="1902" y="1456" type="line"/>
      <point x="1714" y="1456" type="line"/>
      <point x="1428" y="246" type="line"/>
      <point x="1089" y="1427" type="line"/>
      <point x="907" y="1427" type="line"/>
      <point x="565" y="259" type="line"/>
      <point x="251" y="1456" type="line"/>
      <point x="77" y="1456" type="line"/>
      <point x="464" y="0" type="line"/>
      <point x="648" y="0" type="line"/>
    </contour>
  </outline>
</glyph>
<glyph name="X" format="1">
  <advance width="1291"/>
  <unicode hex="0058"/>
  <outline>
    <contour>
      <point x="750" y="730" type="line"/>
      <point x="1228" y="1456" type="line"/>
      <point x="1020" y="1456" type="line"/>
      <point x="649" y="882" type="line"/>
      <point x="267" y="1456" type="line"/>
      <point x="52" y="1456" type="line"/>
      <point x="528" y="738" type="line"/>
      <point x="46" y="-1" type="line"/>
      <point x="245" y="-1" type="line"/>
      <point x="632" y="581" type="line"/>
      <point x="1018" y="-1" type="line"/>
      <point x="1236" y="-1" type="line"/>
    </contour>
  </outline>
</glyph>
<glyph name="Y" format="1">
  <advance width="1364"/>
  <unicode hex="0059"/>
  <outline>
    <contour>
      <point x="683" y="1456" type="move" name="top"/>
    </contour>
    <contour>
      <point x="781" y="514" type="line"/>
      <point x="1288" y="1456" type="line"/>
      <point x="1094" y="1456" type="line"/>
      <point x="683" y="684" type="line"/>
      <point x="260" y="1456" type="line"/>
      <point x="76" y="1456" type="line"/>
      <point x="587" y="517" type="line"/>
      <point x="587" y="0" type="line"/>
      <point x="781" y="0" type="line"/>
    </contour>
  </outline>
</glyph>
<glyph name="Z" format="1">
  <advance width="1190"/>
  <unicode hex="005A"/>
  <outline>
    <contour>
      <point x="649" y="0" type="move" name="bot"/>
    </contour>
    <contour>
      <point x="666" y="1456" type="move" name="top"/>
    </contour>
    <contour>
      <point x="92" y="0" type="line"/>
      <point x="1124" y="0" type="line"/>
      <point x="1130" y="146" type="line"/>
      <point x="314" y="146" type="line"/>
      <point x="1122" y="1324" type="line"/>
      <point x="1116" y="1456" type="line"/>
      <point x="122" y="1456" type="line"/>
      <point x="124" y="1311" type="line"/>
      <point x="905" y="1311" type="line"/>
      <point x="92" y="133" type="line"/>
    </contour>
  </outline>
</glyph>
<glyph name="bracketleft" format="1">
  <advance width="823"/>
  <unicode hex="005B"/>
  <outline>
    <contour>
      <point x="218" y="-255" type="line"/>
      <point x="680" y="-255" type="line"/>
      <point x="680" y="-126" type="line"/>
      <point x="401" y="-126" type="line"/>
      <point x="401" y="1348" type="line"/>
      <point x="680" y="1348" type="line"/>
      <point x="680" y="1477" type="line"/>
      <point x="218" y="1477" type="line"/>
    </contour>
  </outline>
</glyph>
<glyph name="bracketright" format="1">
  <advance width="965"/>
  <unicode hex="005D"/>
  <outline>
    <contour>
      <point x="288" y="-255" type="line"/>
      <point x="750" y="-255" type="line"/>
      <point x="750" y="1477" type="line"/>
      <point x="288" y="1477" type="line"/>
      <point x="288" y="1348" type="line"/>
      <point x="568" y="1348" type="line"/>
      <point x="568" y="-126" type="line"/>
      <point x="288" y="-126" type="line"/>
    </contour>
  </outline>
</glyph>
<glyph name="asciicircum" format="1">
  <advance width="1296"/>
  <unicode hex="005E"/>
  <outline>
    <contour>
      <point x="605" y="1456" type="line"/>
      <point x="92" y="297" type="line"/>
      <point x="270" y="297" type="line"/>
      <point x="648" y="1170" type="line"/>
      <point x="1024" y="297" type="line"/>
      <point x="1204" y="297" type="line"/>
      <point x="689" y="1456" type="line"/>
    </contour>
  </outline>
</glyph>
<glyph name="a" format="1">
  <advance width="1120"/>
  <unicode hex="0061"/>
  <outline>
    <contour>
      <point x="498" y="1" type="move" name="bot"/>
    </contour>
    <contour>
      <point x="562" y="1083" type="move" name="top"/>
    </contour>
    <contour>
      <point x="490" y="109" type="curve" smooth="yes"/>
      <point x="376" y="109"/>
      <point x="286" y="156"/>
      <point x="286" y="292" type="curve" smooth="yes"/>
      <point x="286" y="417"/>
      <point x="356" y="481"/>
      <point x="577" y="481" type="curve" smooth="yes"/>
      <point x="788" y="480" type="line"/>
      <point x="788" y="253" type="line"/>
      <point x="721" y="167"/>
      <point x="618" y="109"/>
    </contour>
    <contour>
      <point x="113" y="294" type="curve" smooth="yes"/>
      <point x="113" y="83"/>
      <point x="255" y="-20"/>
      <point x="462" y="-20" type="curve" smooth="yes"/>
      <point x="610" y="-20"/>
      <point x="718" y="30"/>
      <point x="804" y="133" type="curve"/>
      <point x="817" y="0" type="line"/>
      <point x="969" y="0" type="line"/>
      <point x="969" y="705" type="line" smooth="yes"/>
      <point x="969" y="998"/>
      <point x="799" y="1106"/>
      <point x="556" y="1106" type="curve" smooth="yes"/>
      <point x="412" y="1106"/>
      <point x="260" y="1073"/>
      <point x="151" y="1004" type="curve"/>
      <point x="204" y="866" type="line"/>
      <point x="307" y="936"/>
      <point x="448" y="968"/>
      <point x="551" y="968" type="curve" smooth="yes"/>
      <point x="709" y="968"/>
      <point x="788" y="894"/>
      <point x="788" y="720" type="curve" smooth="yes"/>
      <point x="788" y="595" type="line"/>
      <point x="556" y="598" type="line"/>
      <point x="544" y="598" type="line" smooth="yes"/>
      <point x="244" y="598"/>
      <point x="113" y="486"/>
    </contour>
  </outline>
</glyph>
<glyph name="b" format="1">
  <advance width="1211"/>
  <unicode hex="0062"/>
  <outline>
    <contour>
      <point x="660" y="1082" type="move" name="top"/>
    </contour>
    <contour>
      <point x="626" y="115" type="curve" smooth="yes"/>
      <point x="507" y="115"/>
      <point x="405" y="159"/>
      <point x="339" y="250" type="curve"/>
      <point x="339" y="559" type="line" smooth="yes"/>
      <point x="339" y="808"/>
      <point x="430" y="970"/>
      <point x="645" y="970" type="curve" smooth="yes"/>
      <point x="848" y="970"/>
      <point x="912" y="792"/>
      <point x="912" y="542" type="curve" smooth="yes"/>
      <point x="912" y="279"/>
      <point x="825" y="115"/>
    </contour>
    <contour>
      <point x="671" y="1106" type="curve" smooth="yes"/>
      <point x="546" y="1106"/>
      <point x="412" y="1061"/>
      <point x="339" y="882" type="curve"/>
      <point x="346" y="1109" type="line"/>
      <point x="346" y="1560" type="line"/>
      <point x="164" y="1540" type="line"/>
      <point x="164" y="0" type="line"/>
      <point x="312" y="0" type="line"/>
      <point x="323" y="115" type="line"/>
      <point x="388" y="37"/>
      <point x="495" y="-20"/>
      <point x="637" y="-20" type="curve" smooth="yes"/>
      <point x="932" y="-20"/>
      <point x="1098" y="205"/>
      <point x="1098" y="543" type="curve" smooth="yes"/>
      <point x="1098" y="871"/>
      <point x="965" y="1106"/>
    </contour>
  </outline>
</glyph>
<glyph name="c" format="1">
  <advance width="1090"/>
  <unicode hex="0063"/>
  <outline>
    <contour>
      <point x="607" y="1" type="move" name="bot"/>
    </contour>
    <contour>
      <point x="623" y="1083" type="move" name="top"/>
    </contour>
    <contour>
      <point x="873" y="272" type="line"/>
      <point x="823" y="181"/>
      <point x="754" y="117"/>
      <point x="618" y="117" type="curve" smooth="yes"/>
      <point x="616" y="117" type="line" smooth="yes"/>
      <point x="410" y="117"/>
      <point x="305" y="276"/>
      <point x="305" y="543" type="curve" smooth="yes"/>
      <point x="305" y="811"/>
      <point x="411" y="969"/>
      <point x="618" y="969" type="curve" smooth="yes"/>
      <point x="754" y="969"/>
      <point x="824" y="902"/>
      <point x="874" y="811" type="curve"/>
      <point x="887" y="811" type="line"/>
      <point x="1000" y="876" type="line"/>
      <point x="953" y="986"/>
      <point x="848" y="1106"/>
      <point x="610" y="1106" type="curve" smooth="yes"/>
      <point x="309" y="1106"/>
      <point x="118" y="888"/>
      <point x="118" y="543" type="curve" smooth="yes"/>
      <point x="118" y="198"/>
      <point x="309" y="-20"/>
      <point x="610" y="-20" type="curve" smooth="yes"/>
      <point x="848" y="-20"/>
      <point x="954" y="100"/>
      <point x="1000" y="210" type="curve"/>
      <point x="886" y="272" type="line"/>
    </contour>
  </outline>
</glyph>
<glyph name="d" format="1">
  <advance width="1203"/>
  <unicode hex="0064"/>
  <outline>
    <contour>
      <point x="533" y="1082" type="move" name="top"/>
    </contour>
    <contour>
      <point x="1135" y="1201" type="move" name="caron.alt"/>
    </contour>
    <contour>
      <point x="964" y="1310" type="move" name="mid"/>
    </contour>
    <contour>
      <point x="598" y="115" type="curve" smooth="yes"/>
      <point x="395" y="115"/>
      <point x="300" y="275"/>
      <point x="300" y="547" type="curve" smooth="yes"/>
      <point x="300" y="813"/>
      <point x="398" y="970"/>
      <point x="597" y="970" type="curve" smooth="yes"/>
      <point x="714" y="970"/>
      <point x="816" y="926"/>
      <point x="872" y="845" type="curve"/>
      <point x="872" y="230" type="line"/>
      <point x="808" y="152"/>
      <point x="711" y="115"/>
    </contour>
    <contour>
      <point x="579" y="-20" type="curve" smooth="yes"/>
      <point x="688" y="-20"/>
      <point x="808" y="25"/>
      <point x="887" y="118" type="curve"/>
      <point x="897" y="0" type="line"/>
      <point x="1054" y="0" type="line"/>
      <point x="1054" y="1560" type="line"/>
      <point x="866" y="1540" type="line"/>
      <point x="866" y="1153" type="line"/>
      <point x="871" y="992" type="line"/>
      <point x="810" y="1057"/>
      <point x="717" y="1103"/>
      <point x="592" y="1103" type="curve" smooth="yes"/>
      <point x="584" y="1103" type="line"/>
      <point x="578" y="1103" type="line" smooth="yes"/>
      <point x="287" y="1103"/>
      <point x="113" y="882"/>
      <point x="113" y="544" type="curve" smooth="yes"/>
      <point x="113" y="210"/>
      <point x="275" y="-20"/>
    </contour>
  </outline>
</glyph>
<glyph name="f" format="1">
  <advance width="761"/>
  <unicode hex="0066"/>
  <outline>
    <contour>
      <point x="390" y="1456" type="move" name="top"/>
    </contour>
    <contour>
      <point x="438" y="1082" type="line"/>
      <point x="438" y="1162" type="line" smooth="yes"/>
      <point x="438" y="1342"/>
      <point x="473" y="1384"/>
      <point x="614" y="1384" type="curve" smooth="yes"/>
      <point x="649" y="1384"/>
      <point x="713" y="1377"/>
      <point x="719" y="1376" type="curve"/>
      <point x="731" y="1500" type="line"/>
      <point x="728" y="1501"/>
      <point x="662" y="1517"/>
      <point x="580" y="1517" type="curve" smooth="yes"/>
      <point x="565" y="1517" type="line" smooth="yes"/>
      <point x="369" y="1517"/>
      <point x="256" y="1458"/>
      <point x="256" y="1162" type="curve" smooth="yes"/>
      <point x="256" y="1079" type="line"/>
      <point x="72" y="1065" type="line"/>
      <point x="67" y="971" type="line"/>
      <point x="256" y="971" type="line"/>
      <point x="256" y="0" type="line"/>
      <point x="438" y="0" type="line"/>
      <point x="438" y="971" type="line"/>
      <point x="712" y="971" type="line"/>
      <point x="712" y="1082" type="line"/>
    </contour>
  </outline>
</glyph>
<glyph name="g" format="1">
  <advance width="1206"/>
  <unicode hex="0067"/>
  <outline>
    <contour>
      <point x="603" y="1082" type="move" name="top"/>
    </contour>
    <contour>
      <point x="598" y="115" type="curve" smooth="yes"/>
      <point x="394" y="115"/>
      <point x="299" y="276"/>
      <point x="299" y="547" type="curve" smooth="yes"/>
      <point x="299" y="811"/>
      <point x="399" y="970"/>
      <point x="596" y="970" type="curve" smooth="yes"/>
      <point x="713" y="970"/>
      <point x="805" y="928"/>
      <point x="871" y="836" type="curve"/>
      <point x="871" y="232" type="line"/>
      <point x="814" y="155"/>
      <point x="712" y="115"/>
    </contour>
    <contour>
      <point x="581" y="-18" type="curve" smooth="yes"/>
      <point x="678" y="-18"/>
      <point x="793" y="8"/>
      <point x="874" y="93" type="curve"/>
      <point x="875" y="11" type="line"/>
      <point x="875" y="4" type="line" smooth="yes"/>
      <point x="875" y="-263"/>
      <point x="760" y="-345"/>
      <point x="557" y="-345" type="curve" smooth="yes"/>
      <point x="464" y="-345"/>
      <point x="351" y="-324"/>
      <point x="268" y="-289" type="curve"/>
      <point x="245" y="-289" type="line"/>
      <point x="230" y="-431" type="line"/>
      <point x="315" y="-462"/>
      <point x="436" y="-487"/>
      <point x="559" y="-487" type="curve" smooth="yes"/>
      <point x="911" y="-487"/>
      <point x="1046" y="-310"/>
      <point x="1046" y="52" type="curve" smooth="yes"/>
      <point x="1046" y="1082" type="line"/>
      <point x="891" y="1082" type="line"/>
      <point x="883" y="972" type="line"/>
      <point x="821" y="1048"/>
      <point x="722" y="1106"/>
      <point x="585" y="1106" type="curve" smooth="yes"/>
      <point x="297" y="1106"/>
      <point x="113" y="889"/>
      <point x="113" y="546" type="curve" smooth="yes"/>
      <point x="113" y="198"/>
      <point x="285" y="-18"/>
    </contour>
  </outline>
</glyph>
<glyph name="h" format="1">
  <advance width="1215"/>
  <unicode hex="0068"/>
  <outline>
    <contour>
      <point x="666" y="1397" type="move" name="top"/>
    </contour>
    <contour>
      <point x="167" y="0" type="line"/>
      <point x="348" y="0" type="line"/>
      <point x="348" y="596" type="line" smooth="yes"/>
      <point x="348" y="784"/>
      <point x="423" y="970"/>
      <point x="663" y="970" type="curve" smooth="yes"/>
      <point x="818" y="970"/>
      <point x="877" y="868"/>
      <point x="877" y="661" type="curve" smooth="yes"/>
      <point x="877" y="0" type="line"/>
      <point x="1061" y="0" type="line"/>
      <point x="1061" y="670" type="line" smooth="yes"/>
      <point x="1061" y="947"/>
      <point x="933" y="1106"/>
      <point x="700" y="1106" type="curve" smooth="yes"/>
      <point x="549" y="1106"/>
      <point x="417" y="1049"/>
      <point x="343" y="880" type="curve"/>
      <point x="349" y="1147" type="line"/>
      <point x="349" y="1560" type="line"/>
      <point x="167" y="1540" type="line"/>
    </contour>
  </outline>
</glyph>
<glyph name="l" format="1">
  <advance width="642"/>
  <unicode hex="006C"/>
  <outline>
    <contour>
      <point x="353" y="1502" type="move" name="top"/>
    </contour>
    <contour>
      <point x="478" y="-8" type="line"/>
      <point x="549" y="-8" type="line"/>
      <point x="563" y="124" type="line"/>
      <point x="501" y="128" type="line"/>
      <point x="380" y="137"/>
      <point x="360" y="151"/>
      <point x="360" y="312" type="curve" smooth="yes"/>
      <point x="360" y="1560" type="line"/>
      <point x="179" y="1540" type="line"/>
      <point x="179" y="310" type="line" smooth="yes"/>
      <point x="179" y="45"/>
      <point x="280" y="-8"/>
      <point x="473" y="-8" type="curve" smooth="yes"/>
    </contour>
  </outline>
</glyph>
<glyph name="m" format="1">
  <advance width="1837"/>
  <unicode hex="006D"/>
  <outline>
    <contour>
      <point x="959" y="1082" type="move" name="top"/>
    </contour>
    <contour>
      <point x="1015" y="596" type="line" smooth="yes"/>
      <point x="1015" y="836"/>
      <point x="1168" y="970"/>
      <point x="1303" y="970" type="curve" smooth="yes"/>
      <point x="1474" y="970"/>
      <point x="1502" y="802"/>
      <point x="1502" y="644" type="curve" smooth="yes"/>
      <point x="1502" y="0" type="line"/>
      <point x="1683" y="0" type="line"/>
      <point x="1683" y="697" type="line" smooth="yes"/>
      <point x="1683" y="963"/>
      <point x="1560" y="1106"/>
      <point x="1338" y="1106" type="curve" smooth="yes"/>
      <point x="1183" y="1106"/>
      <point x="1053" y="1026"/>
      <point x="982" y="851" type="curve"/>
      <point x="941" y="1009"/>
      <point x="831" y="1106"/>
      <point x="665" y="1106" type="curve" smooth="yes"/>
      <point x="524" y="1106"/>
      <point x="402" y="1035"/>
      <point x="335" y="870" type="curve"/>
      <point x="316" y="1082" type="line"/>
      <point x="164" y="1082" type="line"/>
      <point x="164" y="0" type="line"/>
      <point x="346" y="0" type="line"/>
      <point x="346" y="638" type="line"/>
      <point x="370" y="828"/>
      <point x="466" y="970"/>
      <point x="629" y="970" type="curve" smooth="yes"/>
      <point x="775" y="970"/>
      <point x="833" y="860"/>
      <point x="833" y="610" type="curve" smooth="yes"/>
      <point x="833" y="0" type="line"/>
      <point x="1015" y="0" type="line"/>
    </contour>
  </outline>
</glyph>
<glyph name="n" format="1">
  <advance width="1208"/>
  <unicode hex="006E"/>
  <outline>
    <contour>
      <point x="606" y="0" type="move" name="bot"/>
    </contour>
    <contour>
      <point x="696" y="1082" type="move" name="top"/>
    </contour>
    <contour>
      <point x="164" y="0" type="line"/>
      <point x="346" y="0" type="line"/>
      <point x="346" y="612" type="line" smooth="yes"/>
      <point x="346" y="807"/>
      <point x="438" y="970"/>
      <point x="661" y="970" type="curve" smooth="yes"/>
      <point x="824" y="970"/>
      <point x="873" y="848"/>
      <point x="873" y="665" type="curve" smooth="yes"/>
      <point x="873" y="0" type="line"/>
      <point x="1054" y="0" type="line"/>
      <point x="1054" y="652" type="line" smooth="yes"/>
      <point x="1054" y="944"/>
      <point x="943" y="1106"/>
      <point x="699" y="1106" type="curve" smooth="yes"/>
      <point x="523" y="1106"/>
      <point x="400" y="1031"/>
      <point x="334" y="871" type="curve"/>
      <point x="315" y="1082" type="line"/>
      <point x="164" y="1082" type="line"/>
    </contour>
  </outline>
</glyph>
<glyph name="o" format="1">
  <advance width="1205"/>
  <unicode hex="006F"/>
  <outline>
    <contour>
      <point x="603" y="1082" type="move" name="top"/>
    </contour>
    <contour>
      <point x="712" y="1" type="move" name="ogonek"/>
    </contour>
    <contour>
      <point x="603" y="-20" type="curve" smooth="yes"/>
      <point x="917" y="-20"/>
      <point x="1092" y="206"/>
      <point x="1092" y="542" type="curve" smooth="yes"/>
      <point x="1092" y="885"/>
      <point x="920" y="1106"/>
      <point x="603" y="1106" type="curve" smooth="yes"/>
      <point x="285" y="1106"/>
      <point x="113" y="885"/>
      <point x="113" y="542" type="curve" smooth="yes"/>
      <point x="113" y="206"/>
      <point x="288" y="-20"/>
    </contour>
    <contour>
      <point x="603" y="115" type="curve" smooth="yes"/>
      <point x="391" y="115"/>
      <point x="300" y="295"/>
      <point x="300" y="541" type="curve" smooth="yes"/>
      <point x="300" y="793"/>
      <point x="392" y="970"/>
      <point x="603" y="970" type="curve" smooth="yes"/>
      <point x="813" y="970"/>
      <point x="905" y="793"/>
      <point x="905" y="541" type="curve" smooth="yes"/>
      <point x="905" y="295"/>
      <point x="814" y="115"/>
    </contour>
  </outline>
</glyph>
<glyph name="p" format="1">
  <advance width="1212"/>
  <unicode hex="0070"/>
  <outline>
    <contour>
      <point x="666" y="1082" type="move" name="top"/>
    </contour>
    <contour>
      <point x="625" y="115" type="curve" smooth="yes"/>
      <point x="508" y="115"/>
      <point x="406" y="159"/>
      <point x="340" y="250" type="curve"/>
      <point x="340" y="575" type="line"/>
      <point x="342" y="810"/>
      <point x="430" y="970"/>
      <point x="644" y="970" type="curve" smooth="yes"/>
      <point x="847" y="970"/>
      <point x="912" y="792"/>
      <point x="912" y="542" type="curve" smooth="yes"/>
      <point x="912" y="276"/>
      <point x="824" y="115"/>
    </contour>
    <contour>
      <point x="165" y="-458" type="line"/>
      <point x="346" y="-458" type="line"/>
      <point x="346" y="-67" type="line"/>
      <point x="341" y="89" type="line"/>
      <point x="408" y="21"/>
      <point x="509" y="-20"/>
      <point x="641" y="-20" type="curve" smooth="yes"/>
      <point x="925" y="-20"/>
      <point x="1099" y="211"/>
      <point x="1099" y="540" type="curve" smooth="yes"/>
      <point x="1099" y="877"/>
      <point x="963" y="1106"/>
      <point x="670" y="1106" type="curve" smooth="yes"/>
      <point x="508" y="1106"/>
      <point x="387" y="1023"/>
      <point x="334" y="859" type="curve"/>
      <point x="317" y="1082" type="line"/>
      <point x="165" y="1082" type="line"/>
    </contour>
  </outline>
</glyph>
<glyph name="q" format="1">
  <advance width="1215"/>
  <unicode hex="0071"/>
  <outline>
    <contour>
      <point x="603" y="115" type="curve" smooth="yes"/>
      <point x="401" y="115"/>
      <point x="305" y="271"/>
      <point x="305" y="545" type="curve" smooth="yes"/>
      <point x="305" y="809"/>
      <point x="402" y="970"/>
      <point x="600" y="970" type="curve" smooth="yes"/>
      <point x="717" y="970"/>
      <point x="811" y="927"/>
      <point x="877" y="834" type="curve"/>
      <point x="877" y="234" type="line"/>
      <point x="820" y="156"/>
      <point x="719" y="115"/>
    </contour>
    <contour>
      <point x="587" y="-20" type="curve" smooth="yes"/>
      <point x="678" y="-20"/>
      <point x="792" y="5"/>
      <point x="874" y="88" type="curve"/>
      <point x="871" y="-22" type="line"/>
      <point x="871" y="-458" type="line"/>
      <point x="1052" y="-458" type="line"/>
      <point x="1052" y="1082" type="line"/>
      <point x="899" y="1082" type="line"/>
      <point x="891" y="963" type="line"/>
      <point x="829" y="1045"/>
      <point x="729" y="1106"/>
      <point x="589" y="1106" type="curve" smooth="yes"/>
      <point x="294" y="1106"/>
      <point x="118" y="880"/>
      <point x="118" y="545" type="curve" smooth="yes"/>
      <point x="118" y="208"/>
      <point x="281" y="-20"/>
    </contour>
  </outline>
</glyph>
<glyph name="r" format="1">
  <advance width="783"/>
  <unicode hex="0072"/>
  <outline>
    <contour>
      <point x="296" y="0" type="move" name="bot"/>
    </contour>
    <contour>
      <point x="465" y="1082" type="move" name="top"/>
    </contour>
    <contour>
      <point x="172" y="0" type="line"/>
      <point x="353" y="0" type="line"/>
      <point x="353" y="614" type="line" smooth="yes"/>
      <point x="353" y="798"/>
      <point x="456" y="947"/>
      <point x="673" y="947" type="curve" smooth="yes"/>
      <point x="675" y="947" type="line"/>
      <point x="714" y="946" type="line"/>
      <point x="728" y="1090" type="line"/>
      <point x="702" y="1094"/>
      <point x="678" y="1095"/>
      <point x="649" y="1095" type="curve" smooth="yes"/>
      <point x="526" y="1095"/>
      <point x="411" y="1035"/>
      <point x="337" y="857" type="curve"/>
      <point x="319" y="1082" type="line"/>
      <point x="172" y="1082" type="line"/>
    </contour>
  </outline>
</glyph>
<glyph name="t" format="1">
  <advance width="799"/>
  <unicode hex="0074"/>
  <outline>
    <contour>
      <point x="476" y="0" type="move" name="bot"/>
    </contour>
    <contour>
      <point x="334" y="1378" type="move" name="top"/>
    </contour>
    <contour>
      <point x="586" y="-8" type="curve" smooth="yes"/>
      <point x="686" y="-8" type="line"/>
      <point x="694" y="120" type="line"/>
      <point x="586" y="124" type="line" smooth="yes"/>
      <point x="425" y="130"/>
      <point x="413" y="163"/>
      <point x="413" y="333" type="curve" smooth="yes"/>
      <point x="413" y="971" type="line"/>
      <point x="701" y="971" type="line"/>
      <point x="701" y="1082" type="line"/>
      <point x="413" y="1082" type="line"/>
      <point x="413" y="1385" type="line"/>
      <point x="262" y="1374" type="line"/>
      <point x="236" y="1081" type="line"/>
      <point x="65" y="1072" type="line"/>
      <point x="60" y="971" type="line"/>
      <point x="231" y="971" type="line"/>
      <point x="231" y="334" type="line" smooth="yes"/>
      <point x="231" y="75"/>
      <point x="279" y="-8"/>
    </contour>
  </outline>
</glyph>
<glyph name="v" format="1">
  <advance width="1081"/>
  <unicode hex="0076"/>
  <outline>
    <contour>
      <point x="453" y="0" type="line"/>
      <point x="638" y="0" type="line"/>
      <point x="1024" y="1082" type="line"/>
      <point x="841" y="1082" type="line"/>
      <point x="744" y="792"/>
      <point x="646" y="502"/>
      <point x="548" y="212" type="curve"/>
      <point x="445" y="499"/>
      <point x="347" y="791"/>
      <point x="248" y="1082" type="curve"/>
      <point x="61" y="1082" type="line"/>
    </contour>
  </outline>
</glyph>
<glyph name="w" format="1">
  <advance width="1508"/>
  <unicode hex="0077"/>
  <outline>
    <contour>
      <point x="759" y="1082" type="move" name="top"/>
    </contour>
    <contour>
      <point x="760" y="907" type="line"/>
      <point x="1038" y="-1" type="line"/>
      <point x="1202" y="-1" type="line"/>
      <point x="1484" y="1082" type="line"/>
      <point x="1318" y="1082" type="line"/>
      <point x="1117" y="235" type="line"/>
      <point x="851" y="1082" type="line"/>
      <point x="661" y="1082" type="line"/>
      <point x="411" y="238" type="line"/>
      <point x="195" y="1082" type="line"/>
      <point x="24" y="1082" type="line"/>
      <point x="320" y="-1" type="line"/>
      <point x="483" y="-1" type="line"/>
    </contour>
  </outline>
</glyph>
<glyph name="y" format="1">
  <advance width="1131"/>
  <unicode hex="0079"/>
  <outline>
    <contour>
      <point x="582" y="1082" type="move" name="top"/>
    </contour>
    <contour>
      <point x="1083" y="1082" type="line"/>
      <point x="908" y="1082" type="line"/>
      <point x="579" y="243" type="line"/>
      <point x="229" y="1082" type="line"/>
      <point x="39" y="1082" type="line"/>
      <point x="489" y="44" type="line"/>
      <point x="329" y="-374" type="line"/>
      <point x="485" y="-414" type="line"/>
    </contour>
  </outline>
</glyph>
<glyph name="z" format="1">
  <advance width="1012"/>
  <unicode hex="007A"/>
  <outline>
    <contour>
      <point x="482" y="0" type="move" name="bot"/>
    </contour>
    <contour>
      <point x="511" y="1082" type="move" name="top"/>
    </contour>
    <contour>
      <point x="121" y="1082" type="line"/>
      <point x="126" y="952" type="line"/>
      <point x="698" y="952" type="line"/>
      <point x="101" y="116" type="line"/>
      <point x="101" y="0" type="line"/>
      <point x="899" y="0" type="line"/>
      <point x="892" y="136" type="line"/>
      <point x="303" y="136" type="line"/>
      <point x="889" y="959" type="line"/>
      <point x="889" y="1082" type="line"/>
    </contour>
  </outline>
</glyph>
<glyph name="braceleft" format="1">
  <advance width="862"/>
  <unicode hex="007B"/>
  <outline>
    <contour>
      <point x="734" y="-262" type="curve"/>
      <point x="734" y="-134" type="line"/>
      <point x="585" y="-134"/>
      <point x="574" y="-105"/>
      <point x="574" y="97" type="curve" smooth="yes"/>
      <point x="574" y="337" type="line" smooth="yes"/>
      <point x="574" y="509"/>
      <point x="531" y="585"/>
      <point x="376" y="612" type="curve"/>
      <point x="531" y="639"/>
      <point x="574" y="715"/>
      <point x="574" y="886" type="curve" smooth="yes"/>
      <point x="574" y="1129" type="line" smooth="yes"/>
      <point x="574" y="1330"/>
      <point x="585" y="1359"/>
      <point x="734" y="1360" type="curve"/>
      <point x="734" y="1487" type="line"/>
      <point x="440" y="1487"/>
      <point x="392" y="1436"/>
      <point x="392" y="1147" type="curve" smooth="yes"/>
      <point x="392" y="968" type="line" smooth="yes"/>
      <point x="392" y="753"/>
      <point x="390" y="686"/>
      <point x="192" y="686" type="curve"/>
      <point x="192" y="538" type="line"/>
      <point x="392" y="538"/>
      <point x="392" y="471"/>
      <point x="392" y="256" type="curve" smooth="yes"/>
      <point x="392" y="78" type="line" smooth="yes"/>
      <point x="392" y="-211"/>
      <point x="440" y="-262"/>
    </contour>
  </outline>
</glyph>
<glyph name="bar" format="1">
  <advance width="686"/>
  <unicode hex="007C"/>
  <outline>
    <contour>
      <point x="263" y="1476" type="line"/>
      <point x="263" y="-279" type="line"/>
      <point x="414" y="-279" type="line"/>
      <point x="414" y="1476" type="line"/>
    </contour>
  </outline>
</glyph>
<glyph name="braceright" format="1">
  <advance width="862"/>
  <unicode hex="007D"/>
  <outline>
    <contour>
      <point x="126" y="-262" type="line"/>
      <point x="420" y="-262"/>
      <point x="468" y="-211"/>
      <point x="468" y="78" type="curve" smooth="yes"/>
      <point x="468" y="256" type="line" smooth="yes"/>
      <point x="468" y="471"/>
      <point x="468" y="538"/>
      <point x="669" y="538" type="curve"/>
      <point x="669" y="686" type="line"/>
      <point x="471" y="686"/>
      <point x="468" y="753"/>
      <point x="468" y="968" type="curve" smooth="yes"/>
      <point x="468" y="1147" type="line" smooth="yes"/>
      <point x="468" y="1436"/>
      <point x="420" y="1487"/>
      <point x="126" y="1487" type="curve"/>
      <point x="126" y="1360" type="line"/>
      <point x="276" y="1359"/>
      <point x="286" y="1330"/>
      <point x="286" y="1129" type="curve" smooth="yes"/>
      <point x="286" y="886" type="line" smooth="yes"/>
      <point x="286" y="715"/>
      <point x="329" y="639"/>
      <point x="484" y="612" type="curve"/>
      <point x="329" y="585"/>
      <point x="286" y="509"/>
      <point x="286" y="337" type="curve" smooth="yes"/>
      <point x="286" y="97" type="line" smooth="yes"/>
      <point x="286" y="-105"/>
      <point x="276" y="-134"/>
      <point x="126" y="-134" type="curve"/>
    </contour>
  </outline>
</glyph>
<glyph name="cent" format="1">
  <advance width="1077"/>
  <unicode hex="00A2"/>
  <outline>
    <component base="c"/>
    <contour>
      <point x="539" y="34" type="line"/>
      <point x="539" y="-309" type="line"/>
      <point x="655" y="-309" type="line"/>
      <point x="673" y="34" type="line"/>
    </contour>
    <contour>
      <point x="550" y="1388" type="line"/>
      <point x="538" y="1060" type="line"/>
      <point x="662" y="1060" type="line"/>
      <point x="664" y="1388" type="line"/>
    </contour>
  </outline>
</glyph>
<glyph name="sterling" format="1">
  <advance width="1144"/>
  <unicode hex="00A3"/>
  <outline>
    <contour>
      <point x="439" y="957" type="line" smooth="yes"/>
      <point x="439" y="1207"/>
      <point x="525" y="1328"/>
      <point x="690" y="1328" type="curve" smooth="yes"/>
      <point x="800" y="1328"/>
      <point x="863" y="1281"/>
      <point x="933" y="1225" type="curve"/>
      <point x="950" y="1225" type="line"/>
      <point x="1018" y="1346" type="line"/>
      <point x="953" y="1409"/>
      <point x="847" y="1483"/>
      <point x="668" y="1483" type="curve" smooth="yes"/>
      <point x="336" y="1483"/>
      <point x="246" y="1227"/>
      <point x="246" y="956" type="curve" smooth="yes"/>
      <point x="246" y="812" type="line"/>
      <point x="72" y="812" type="line"/>
      <point x="72" y="681" type="line"/>
      <point x="246" y="681" type="line"/>
      <point x="246" y="143" type="line"/>
      <point x="73" y="125" type="line"/>
      <point x="85" y="0" type="line"/>
      <point x="1015" y="0" type="line"/>
      <point x="1027" y="145" type="line"/>
      <point x="439" y="145" type="line"/>
      <point x="439" y="681" type="line"/>
      <point x="815" y="681" type="line"/>
      <point x="815" y="812" type="line"/>
      <point x="439" y="812" type="line"/>
    </contour>
  </outline>
</glyph>
<glyph name="currency" format="1">
  <advance width="1159"/>
  <unicode hex="00A4"/>
  <outline>
    <contour>
      <point x="877" y="721" type="curve" smooth="yes"/>
      <point x="877" y="551"/>
      <point x="760" y="406"/>
      <point x="576" y="406" type="curve" smooth="yes"/>
      <point x="393" y="406"/>
      <point x="275" y="550"/>
      <point x="275" y="721" type="curve" smooth="yes"/>
      <point x="275" y="892"/>
      <point x="393" y="1038"/>
      <point x="576" y="1038" type="curve" smooth="yes"/>
      <point x="759" y="1038"/>
      <point x="877" y="892"/>
    </contour>
    <contour>
      <point x="833" y="1043" type="line"/>
      <point x="762" y="1102"/>
      <point x="673" y="1137"/>
      <point x="576" y="1137" type="curve" smooth="yes"/>
      <point x="479" y="1137"/>
      <point x="389" y="1104"/>
      <point x="318" y="1044" type="curve"/>
      <point x="139" y="1217" type="line"/>
      <point x="71" y="1149" type="line"/>
      <point x="252" y="970" type="line"/>
      <point x="199" y="897"/>
      <point x="173" y="812"/>
      <point x="173" y="721" type="curve" smooth="yes"/>
      <point x="173" y="630"/>
      <point x="200" y="545"/>
      <point x="252" y="473" type="curve"/>
      <point x="72" y="297" type="line"/>
      <point x="139" y="226" type="line"/>
      <point x="318" y="400" type="line"/>
      <point x="390" y="340"/>
      <point x="477" y="308"/>
      <point x="576" y="308" type="curve" smooth="yes"/>
      <point x="674" y="308"/>
      <point x="762" y="341"/>
      <point x="833" y="399" type="curve"/>
      <point x="1014" y="225" type="line"/>
      <point x="1078" y="296" type="line"/>
      <point x="900" y="473" type="line"/>
      <point x="952" y="544"/>
      <point x="979" y="628"/>
      <point x="979" y="721" type="curve" smooth="yes"/>
      <point x="979" y="810"/>
      <point x="952" y="895"/>
      <point x="899" y="970" type="curve"/>
      <point x="1079" y="1146" type="line"/>
      <point x="1014" y="1217" type="line"/>
    </contour>
  </outline>
</glyph>
<glyph name="dieresis" format="1">
  <advance width="935"/>
  <unicode hex="00A8"/>
  <outline>
    <contour>
      <point x="465" y="1082" type="move" name="_top"/>
    </contour>
    <contour>
      <point x="674" y="1290" type="curve" smooth="yes"/>
      <point x="747" y="1290"/>
      <point x="780" y="1338"/>
      <point x="780" y="1399" type="curve" smooth="yes"/>
      <point x="780" y="1459"/>
      <point x="747" y="1508"/>
      <point x="674" y="1508" type="curve" smooth="yes"/>
      <point x="599" y="1508"/>
      <point x="566" y="1459"/>
      <point x="566" y="1399" type="curve" smooth="yes"/>
      <point x="566" y="1338"/>
      <point x="600" y="1290"/>
    </contour>
    <contour>
      <point x="239" y="1290" type="curve" smooth="yes"/>
      <point x="312" y="1290"/>
      <point x="345" y="1338"/>
      <point x="345" y="1399" type="curve" smooth="yes"/>
      <point x="345" y="1459"/>
      <point x="312" y="1508"/>
      <point x="239" y="1508" type="curve" smooth="yes"/>
      <point x="164" y="1508"/>
      <point x="132" y="1459"/>
      <point x="132" y="1399" type="curve" smooth="yes"/>
      <point x="132" y="1338"/>
      <point x="166" y="1290"/>
    </contour>
  </outline>
</glyph>
<glyph name="copyright" format="1">
  <advance width="1712"/>
  <unicode hex="00A9"/>
  <outline>
    <contour>
      <point x="765" y="-23" type="curve" smooth="yes"/>
      <point x="1152" y="-23"/>
      <point x="1533" y="241"/>
      <point x="1533" y="727" type="curve" smooth="yes"/>
      <point x="1533" y="1216"/>
      <point x="1151" y="1479"/>
      <point x="765" y="1479" type="curve" smooth="yes"/>
      <point x="382" y="1479"/>
      <point x="10" y="1216"/>
      <point x="10" y="727" type="curve" smooth="yes"/>
      <point x="10" y="241"/>
      <point x="382" y="-23"/>
    </contour>
    <contour>
      <point x="765" y="68" type="curve" smooth="yes"/>
      <point x="431" y="68"/>
      <point x="114" y="302"/>
      <point x="114" y="727" type="curve" smooth="yes"/>
      <point x="114" y="1153"/>
      <point x="431" y="1386"/>
      <point x="765" y="1386" type="curve" smooth="yes"/>
      <point x="1101" y="1386"/>
      <point x="1421" y="1153"/>
      <point x="1421" y="727" type="curve" smooth="yes"/>
      <point x="1421" y="303"/>
      <point x="1101" y="68"/>
    </contour>
    <contour>
      <point x="785" y="236" type="curve" smooth="yes"/>
      <point x="885" y="236"/>
      <point x="983" y="263"/>
      <point x="1069" y="317" type="curve"/>
      <point x="1033" y="405" type="line"/>
      <point x="948" y="353"/>
      <point x="870" y="335"/>
      <point x="790" y="335" type="curve" smooth="yes"/>
      <point x="593" y="335"/>
      <point x="436" y="485"/>
      <point x="436" y="730" type="curve" smooth="yes"/>
      <point x="436" y="959"/>
      <point x="592" y="1115"/>
      <point x="783" y="1115" type="curve" smooth="yes"/>
      <point x="856" y="1115"/>
      <point x="948" y="1091"/>
      <point x="1022" y="1039" type="curve"/>
      <point x="1066" y="1129" type="line"/>
      <point x="978" y="1187"/>
      <point x="880" y="1216"/>
      <point x="778" y="1216" type="curve" smooth="yes"/>
      <point x="523" y="1216"/>
      <point x="308" y="1010"/>
      <point x="308" y="726" type="curve" smooth="yes"/>
      <point x="308" y="434"/>
      <point x="528" y="236"/>
    </contour>
  </outline>
</glyph>
<glyph name="guillemotleft" format="1">
  <advance width="999"/>
  <unicode hex="00AB"/>
  <outline>
    <contour>
      <point x="729" y="146" type="line"/>
      <point x="889" y="146" type="line"/>
      <point x="614" y="554" type="line"/>
      <point x="895" y="959" type="line"/>
      <point x="732" y="959" type="line"/>
      <point x="442" y="551" type="line"/>
    </contour>
    <contour>
      <point x="369" y="146" type="line"/>
      <point x="529" y="146" type="line"/>
      <point x="255" y="554" type="line"/>
      <point x="536" y="959" type="line"/>
      <point x="373" y="959" type="line"/>
      <point x="82" y="551" type="line"/>
    </contour>
  </outline>
</glyph>
<glyph name="logicalnot" format="1">
  <advance width="1244"/>
  <unicode hex="00AC"/>
  <outline>
    <contour>
      <point x="104" y="809" type="line"/>
      <point x="104" y="672" type="line"/>
      <point x="935" y="672" type="line"/>
      <point x="935" y="253" type="line"/>
      <point x="1064" y="253" type="line"/>
      <point x="1064" y="809" type="line"/>
    </contour>
  </outline>
</glyph>
<glyph name="registered" format="1">
  <advance width="1851"/>
  <unicode hex="00AE"/>
  <outline>
    <contour>
      <point x="918" y="-23" type="curve" smooth="yes"/>
      <point x="1295" y="-23"/>
      <point x="1666" y="241"/>
      <point x="1666" y="728" type="curve" smooth="yes"/>
      <point x="1666" y="1215"/>
      <point x="1295" y="1479"/>
      <point x="918" y="1479" type="curve" smooth="yes"/>
      <point x="543" y="1479"/>
      <point x="173" y="1215"/>
      <point x="173" y="728" type="curve" smooth="yes"/>
      <point x="173" y="241"/>
      <point x="543" y="-23"/>
    </contour>
    <contour>
      <point x="918" y="68" type="curve" smooth="yes"/>
      <point x="591" y="68"/>
      <point x="283" y="302"/>
      <point x="283" y="728" type="curve" smooth="yes"/>
      <point x="283" y="1153"/>
      <point x="591" y="1388"/>
      <point x="918" y="1388" type="curve" smooth="yes"/>
      <point x="1246" y="1388"/>
      <point x="1558" y="1152"/>
      <point x="1558" y="728" type="curve" smooth="yes"/>
      <point x="1558" y="302"/>
      <point x="1246" y="68"/>
    </contour>
    <contour>
      <point x="745" y="818" type="line"/>
      <point x="745" y="1106" type="line"/>
      <point x="920" y="1106" type="line" smooth="yes"/>
      <point x="1079" y="1106"/>
      <point x="1138" y="1090"/>
      <point x="1138" y="965" type="curve" smooth="yes"/>
      <point x="1138" y="859"/>
      <point x="1093" y="818"/>
      <point x="953" y="818" type="curve" smooth="yes"/>
    </contour>
    <contour>
      <point x="628" y="295" type="line"/>
      <point x="744" y="295" type="line"/>
      <point x="744" y="720" type="line"/>
      <point x="945" y="720" type="line"/>
      <point x="953" y="710"/>
      <point x="1155" y="295"/>
      <point x="1155" y="295" type="curve"/>
      <point x="1285" y="295" type="line"/>
      <point x="1285" y="295"/>
      <point x="1075" y="713"/>
      <point x="1060" y="733" type="curve"/>
      <point x="1192" y="750"/>
      <point x="1251" y="836"/>
      <point x="1251" y="970" type="curve" smooth="yes"/>
      <point x="1251" y="1136"/>
      <point x="1165" y="1207"/>
      <point x="938" y="1207" type="curve" smooth="yes"/>
      <point x="628" y="1207" type="line"/>
    </contour>
  </outline>
</glyph>
<glyph name="macron" format="1">
  <advance width="1144"/>
  <unicode hex="00AF"/>
  <outline>
    <contour>
      <point x="571" y="1066" type="move" name="_top"/>
    </contour>
    <contour>
      <point x="265" y="1327" type="line"/>
      <point x="849" y="1327" type="line"/>
      <point x="849" y="1427" type="line"/>
      <point x="265" y="1427" type="line"/>
    </contour>
  </outline>
</glyph>
<glyph name="uni00B2" format="1">
  <advance width="785"/>
  <unicode hex="00B2"/>
  <outline>
    <contour>
      <point x="152" y="647" type="line"/>
      <point x="666" y="647" type="line"/>
      <point x="675" y="754" type="line"/>
      <point x="337" y="754" type="line"/>
      <point x="445" y="858"/>
      <point x="454" y="861"/>
      <point x="533" y="940" type="curve" smooth="yes"/>
      <point x="625" y="1035"/>
      <point x="676" y="1124"/>
      <point x="676" y="1238" type="curve" smooth="yes"/>
      <point x="676" y="1409"/>
      <point x="548" y="1501"/>
      <point x="408" y="1501" type="curve" smooth="yes"/>
      <point x="277" y="1501"/>
      <point x="180" y="1455"/>
      <point x="112" y="1367" type="curve"/>
      <point x="175" y="1281" type="line"/>
      <point x="229" y="1349"/>
      <point x="303" y="1387"/>
      <point x="400" y="1387" type="curve" smooth="yes"/>
      <point x="486" y="1387"/>
      <point x="549" y="1326"/>
      <point x="549" y="1235" type="curve" smooth="yes"/>
      <point x="549" y="1178"/>
      <point x="502" y="1106"/>
      <point x="436" y="1028" type="curve" smooth="yes"/>
      <point x="308" y="887"/>
      <point x="256" y="858"/>
      <point x="152" y="754" type="curve"/>
    </contour>
  </outline>
</glyph>
<glyph name="acute" format="1">
  <advance width="732"/>
  <unicode hex="00B4"/>
  <outline>
    <contour>
      <point x="355" y="1082" type="move" name="_top"/>
    </contour>
    <contour>
      <point x="292" y="1209" type="line"/>
      <point x="411" y="1209" type="line"/>
      <point x="710" y="1586" type="line"/>
      <point x="488" y="1586" type="line"/>
    </contour>
  </outline>
</glyph>
<glyph name="paragraph" format="1">
  <advance width="1146"/>
  <unicode hex="00B6"/>
  <outline>
    <contour>
      <point x="645" y="1331" type="line"/>
      <point x="785" y="1331" type="line"/>
      <point x="785" y="-205" type="line"/>
      <point x="914" y="-205" type="line"/>
      <point x="914" y="1456" type="line"/>
      <point x="557" y="1456" type="line" smooth="yes"/>
      <point x="229" y="1456"/>
      <point x="131" y="1281"/>
      <point x="131" y="1111" type="curve" smooth="yes"/>
      <point x="131" y="934"/>
      <point x="235" y="763"/>
      <point x="516" y="763" type="curve"/>
      <point x="516" y="-205" type="line"/>
      <point x="645" y="-205" type="line"/>
    </contour>
  </outline>
</glyph>
<glyph name="periodcentered" format="1">
  <advance width="648"/>
  <unicode hex="00B7"/>
  <outline>
    <contour>
      <point x="334" y="508" type="curve" smooth="yes"/>
      <point x="401" y="508"/>
      <point x="450" y="555"/>
      <point x="450" y="624" type="curve" smooth="yes"/>
      <point x="450" y="692"/>
      <point x="401" y="738"/>
      <point x="334" y="738" type="curve" smooth="yes"/>
      <point x="266" y="738"/>
      <point x="217" y="692"/>
      <point x="217" y="624" type="curve" smooth="yes"/>
      <point x="217" y="555"/>
      <point x="266" y="508"/>
    </contour>
  </outline>
</glyph>
<glyph name="uni00B9" format="1">
  <advance width="884"/>
  <unicode hex="00B9"/>
  <outline>
    <contour>
      <point x="262" y="629" type="line"/>
      <point x="740" y="629" type="line"/>
      <point x="740" y="741" type="line"/>
      <point x="574" y="741" type="line"/>
      <point x="574" y="1487" type="line"/>
      <point x="462" y="1487" type="line"/>
      <point x="425" y="1456"/>
      <point x="310" y="1401"/>
      <point x="256" y="1381" type="curve"/>
      <point x="256" y="1267" type="line"/>
      <point x="289" y="1274"/>
      <point x="395" y="1319"/>
      <point x="433" y="1342" type="curve"/>
      <point x="433" y="741" type="line"/>
      <point x="262" y="741" type="line"/>
    </contour>
  </outline>
</glyph>
<glyph name="guillemotright" format="1">
  <advance width="999"/>
  <unicode hex="00BB"/>
  <outline>
    <contour>
      <point x="608" y="146" type="line"/>
      <point x="896" y="552" type="line"/>
      <point x="606" y="959" type="line"/>
      <point x="443" y="959" type="line"/>
      <point x="723" y="554" type="line"/>
      <point x="449" y="146" type="line"/>
    </contour>
    <contour>
      <point x="250" y="146" type="line"/>
      <point x="537" y="552" type="line"/>
      <point x="248" y="959" type="line"/>
      <point x="85" y="959" type="line"/>
      <point x="365" y="554" type="line"/>
      <point x="90" y="146" type="line"/>
    </contour>
  </outline>
</glyph>
<glyph name="onequarter" format="1">
  <advance width="1739"/>
  <unicode hex="00BC"/>
  <outline>
    <contour>
      <point x="1136" y="300" type="line"/>
      <point x="1393" y="686" type="line"/>
      <point x="1393" y="300" type="line"/>
    </contour>
    <contour>
      <point x="376" y="0" type="line"/>
      <point x="517" y="0" type="line"/>
      <point x="1432" y="1479" type="line"/>
      <point x="1293" y="1479" type="line"/>
    </contour>
    <contour>
      <point x="1394" y="0" type="line"/>
      <point x="1525" y="0" type="line"/>
      <point x="1525" y="190" type="line"/>
      <point x="1645" y="190" type="line"/>
      <point x="1639" y="300" type="line"/>
      <point x="1526" y="300" type="line"/>
      <point x="1526" y="859" type="line"/>
      <point x="1384" y="859" type="line"/>
      <point x="993" y="288" type="line"/>
      <point x="993" y="190" type="line"/>
      <point x="1394" y="190" type="line"/>
    </contour>
    <contour>
      <point x="133" y="594" type="line"/>
      <point x="563" y="594" type="line"/>
      <point x="563" y="711" type="line"/>
      <point x="425" y="711" type="line"/>
      <point x="425" y="1479" type="line"/>
      <point x="310" y="1479" type="line"/>
      <point x="270" y="1442"/>
      <point x="155" y="1389"/>
      <point x="123" y="1375" type="curve"/>
      <point x="123" y="1255" type="line"/>
      <point x="149" y="1267"/>
      <point x="245" y="1306"/>
      <point x="282" y="1329" type="curve"/>
      <point x="282" y="711" type="line"/>
      <point x="133" y="711" type="line"/>
    </contour>
  </outline>
</glyph>
<glyph name="threequarters" format="1">
  <advance width="1749"/>
  <unicode hex="00BE"/>
  <outline>
    <contour>
      <point x="1180" y="300" type="line"/>
      <point x="1437" y="686" type="line"/>
      <point x="1437" y="300" type="line"/>
    </contour>
    <contour>
      <point x="428" y="0" type="line"/>
      <point x="569" y="0" type="line"/>
      <point x="1484" y="1479" type="line"/>
      <point x="1345" y="1479" type="line"/>
    </contour>
    <contour>
      <point x="1438" y="0" type="line"/>
      <point x="1569" y="0" type="line"/>
      <point x="1569" y="190" type="line"/>
      <point x="1689" y="190" type="line"/>
      <point x="1683" y="300" type="line"/>
      <point x="1570" y="300" type="line"/>
      <point x="1570" y="859" type="line"/>
      <point x="1428" y="859" type="line"/>
      <point x="1036" y="288" type="line"/>
      <point x="1036" y="190" type="line"/>
      <point x="1438" y="190" type="line"/>
    </contour>
    <contour>
      <point x="357" y="592" type="curve" smooth="yes"/>
      <point x="505" y="592"/>
      <point x="642" y="676"/>
      <point x="642" y="855" type="curve" smooth="yes"/>
      <point x="642" y="951"/>
      <point x="583" y="1032"/>
      <point x="480" y="1062" type="curve"/>
      <point x="585" y="1086"/>
      <point x="622" y="1187"/>
      <point x="622" y="1259" type="curve" smooth="yes"/>
      <point x="622" y="1408"/>
      <point x="500" y="1477"/>
      <point x="365" y="1477" type="curve" smooth="yes"/>
      <point x="279" y="1477"/>
      <point x="188" y="1448"/>
      <point x="120" y="1395" type="curve"/>
      <point x="171" y="1300" type="line"/>
      <point x="239" y="1340"/>
      <point x="303" y="1360"/>
      <point x="357" y="1360" type="curve" smooth="yes"/>
      <point x="435" y="1360"/>
      <point x="488" y="1319"/>
      <point x="488" y="1240" type="curve" smooth="yes"/>
      <point x="488" y="1160"/>
      <point x="429" y="1111"/>
      <point x="332" y="1111" type="curve" smooth="yes"/>
      <point x="238" y="1111" type="line"/>
      <point x="238" y="995" type="line"/>
      <point x="334" y="996" type="line"/>
      <point x="450" y="996"/>
      <point x="507" y="947"/>
      <point x="507" y="851" type="curve" smooth="yes"/>
      <point x="507" y="750"/>
      <point x="441" y="710"/>
      <point x="357" y="710" type="curve" smooth="yes"/>
      <point x="297" y="710"/>
      <point x="227" y="732"/>
      <point x="168" y="768" type="curve"/>
      <point x="121" y="667" type="line"/>
      <point x="189" y="618"/>
      <point x="275" y="592"/>
    </contour>
  </outline>
</glyph>
<glyph name="AE" format="1">
  <advance width="1606"/>
  <unicode hex="00C6"/>
  <outline>
    <contour>
      <point x="780" y="595" type="line"/>
      <point x="421" y="595" type="line"/>
      <point x="780" y="1291" type="line"/>
    </contour>
    <contour>
      <point x="683" y="1456" type="line"/>
      <point x="-94" y="0" type="line"/>
      <point x="111" y="0" type="line"/>
      <point x="354" y="462" type="line"/>
      <point x="780" y="462" type="line"/>
      <point x="780" y="0" type="line"/>
      <point x="1553" y="0" type="line"/>
      <point x="1565" y="147" type="line"/>
      <point x="961" y="147" type="line"/>
      <point x="961" y="689" type="line"/>
      <point x="1484" y="689" type="line"/>
      <point x="1484" y="834" type="line"/>
      <point x="961" y="834" type="line"/>
      <point x="961" y="1311" type="line"/>
      <point x="1542" y="1311" type="line"/>
      <point x="1549" y="1456" type="line"/>
    </contour>
  </outline>
</glyph>
<glyph name="multiply" format="1">
  <advance width="994"/>
  <unicode hex="00D7"/>
  <outline>
    <contour>
      <point x="113" y="962" type="line"/>
      <point x="397" y="653" type="line"/>
      <point x="104" y="337" type="line"/>
      <point x="200" y="238" type="line"/>
      <point x="493" y="551" type="line"/>
      <point x="784" y="238" type="line"/>
      <point x="877" y="340" type="line"/>
      <point x="877" y="340"/>
      <point x="615" y="626"/>
      <point x="589" y="653" type="curve"/>
      <point x="874" y="959" type="line"/>
      <point x="775" y="1060" type="line"/>
      <point x="493" y="755" type="line"/>
      <point x="209" y="1063" type="line"/>
    </contour>
  </outline>
</glyph>
<glyph name="germandbls" format="1">
  <advance width="1283"/>
  <unicode hex="00DF"/>
  <outline>
    <contour>
      <point x="852" y="-20" type="curve" smooth="yes"/>
      <point x="1058" y="-20"/>
      <point x="1180" y="102"/>
      <point x="1180" y="297" type="curve" smooth="yes"/>
      <point x="1180" y="597"/>
      <point x="790" y="705"/>
      <point x="790" y="818" type="curve" smooth="yes"/>
      <point x="790" y="907"/>
      <point x="999" y="1015"/>
      <point x="999" y="1232" type="curve" smooth="yes"/>
      <point x="999" y="1426"/>
      <point x="849" y="1552"/>
      <point x="621" y="1552" type="curve" smooth="yes"/>
      <point x="323" y="1552"/>
      <point x="165" y="1374"/>
      <point x="165" y="1080" type="curve" smooth="yes"/>
      <point x="165" y="1" type="line"/>
      <point x="346" y="1" type="line"/>
      <point x="346" y="1079" type="line" smooth="yes"/>
      <point x="346" y="1316"/>
      <point x="445" y="1410"/>
      <point x="627" y="1410" type="curve" smooth="yes"/>
      <point x="759" y="1410"/>
      <point x="827" y="1339"/>
      <point x="827" y="1232" type="curve" smooth="yes"/>
      <point x="827" y="1028"/>
      <point x="626" y="970"/>
      <point x="626" y="802" type="curve" smooth="yes"/>
      <point x="626" y="604"/>
      <point x="1000" y="507"/>
      <point x="1000" y="295" type="curve" smooth="yes"/>
      <point x="1000" y="204"/>
      <point x="948" y="124"/>
      <point x="825" y="124" type="curve" smooth="yes"/>
      <point x="718" y="124"/>
      <point x="609" y="162"/>
      <point x="555" y="191" type="curve"/>
      <point x="509" y="57" type="line"/>
      <point x="591" y="16"/>
      <point x="729" y="-20"/>
    </contour>
  </outline>
</glyph>
<glyph name="ae" format="1">
  <advance width="1657"/>
  <unicode hex="00E6"/>
  <outline>
    <contour>
      <point x="910" y="1082" type="move" name="top"/>
    </contour>
    <contour>
      <point x="1216" y="968" type="curve" smooth="yes"/>
      <point x="1371" y="968"/>
      <point x="1426" y="873"/>
      <point x="1426" y="757" type="curve" smooth="yes"/>
      <point x="1426" y="673"/>
      <point x="1392" y="597"/>
      <point x="1107" y="597" type="curve" smooth="yes"/>
      <point x="1051" y="597"/>
      <point x="986" y="600"/>
      <point x="909" y="606" type="curve"/>
      <point x="924" y="850"/>
      <point x="1033" y="968"/>
    </contour>
    <contour>
      <point x="738" y="357" type="curve" smooth="yes"/>
      <point x="732" y="197"/>
      <point x="610" y="109"/>
      <point x="439" y="109" type="curve" smooth="yes"/>
      <point x="348" y="109"/>
      <point x="234" y="153"/>
      <point x="234" y="294" type="curve" smooth="yes"/>
      <point x="234" y="417"/>
      <point x="283" y="509"/>
      <point x="503" y="509" type="curve" smooth="yes"/>
      <point x="545" y="509"/>
      <point x="660" y="504"/>
      <point x="737" y="495" type="curve" smooth="yes"/>
      <point x="737" y="493"/>
      <point x="737" y="361"/>
    </contour>
    <contour>
      <point x="1587" y="775" type="curve" smooth="yes"/>
      <point x="1587" y="957"/>
      <point x="1457" y="1102"/>
      <point x="1212" y="1102" type="curve" smooth="yes"/>
      <point x="1059" y="1102"/>
      <point x="929" y="1045"/>
      <point x="849" y="899" type="curve"/>
      <point x="804" y="1048"/>
      <point x="681" y="1102"/>
      <point x="504" y="1102" type="curve" smooth="yes"/>
      <point x="333" y="1102"/>
      <point x="210" y="1057"/>
      <point x="82" y="972" type="curve"/>
      <point x="151" y="857" type="line"/>
      <point x="275" y="938"/>
      <point x="407" y="965"/>
      <point x="508" y="965" type="curve" smooth="yes"/>
      <point x="666" y="965"/>
      <point x="738" y="899"/>
      <point x="738" y="716" type="curve" smooth="yes"/>
      <point x="738" y="613" type="line"/>
      <point x="656" y="623"/>
      <point x="529" y="626"/>
      <point x="481" y="626" type="curve" smooth="yes"/>
      <point x="172" y="626"/>
      <point x="62" y="489"/>
      <point x="62" y="294" type="curve" smooth="yes"/>
      <point x="62" y="91"/>
      <point x="193" y="-11"/>
      <point x="385" y="-20" type="curve"/>
      <point x="557" y="-20"/>
      <point x="737" y="35"/>
      <point x="826" y="205" type="curve"/>
      <point x="901" y="58"/>
      <point x="1043" y="-20"/>
      <point x="1227" y="-20" type="curve" smooth="yes"/>
      <point x="1379" y="-20"/>
      <point x="1507" y="25"/>
      <point x="1597" y="87" type="curve"/>
      <point x="1545" y="207" type="line"/>
      <point x="1456" y="156"/>
      <point x="1375" y="115"/>
      <point x="1249" y="115" type="curve" smooth="yes"/>
      <point x="1060" y="115"/>
      <point x="925" y="208"/>
      <point x="907" y="481" type="curve"/>
      <point x="989" y="476"/>
      <point x="1068" y="471"/>
      <point x="1141" y="471" type="curve" smooth="yes"/>
      <point x="1399" y="471"/>
      <point x="1587" y="525"/>
    </contour>
  </outline>
</glyph>
<glyph name="oslash" format="1">
  <advance width="1205"/>
  <unicode hex="00F8"/>
  <outline>
    <component base="o"/>
    <contour>
      <point x="191" y="-124" type="line"/>
      <point x="257" y="-163" type="line"/>
      <point x="984" y="1201" type="line"/>
      <point x="912" y="1240" type="line"/>
    </contour>
  </outline>
</glyph>
<glyph name="thorn" format="1">
  <advance width="1211"/>
  <unicode hex="00FE"/>
  <outline>
    <contour>
      <point x="111" y="340" type="line"/>
      <point x="111" y="-461" type="line"/>
      <point x="286" y="-461" type="line"/>
      <point x="286" y="340" type="line"/>
    </contour>
    <component base="b" xOffset="-53"/>
  </outline>
</glyph>
<glyph name="dotlessi" format="1">
  <advance width="527"/>
  <unicode hex="0131"/>
  <outline>
    <contour>
      <point x="280" y="1082" type="move" name="top"/>
    </contour>
    <contour>
      <point x="183" y="1082" type="line"/>
      <point x="183" y="0" type="line"/>
      <point x="365" y="0" type="line"/>
      <point x="365" y="1082" type="line"/>
    </contour>
  </outline>
</glyph>
<glyph name="kgreenlandic" format="1">
  <advance width="1089"/>
  <unicode hex="0138"/>
  <outline>
    <contour>
      <point x="152" y="0" type="line"/>
      <point x="326" y="0" type="line"/>
      <point x="326" y="393" type="line"/>
      <point x="450" y="501" type="line"/>
      <point x="861" y="0" type="line"/>
      <point x="1053" y="0" type="line"/>
      <point x="1053" y="22" type="line"/>
      <point x="574" y="589" type="line"/>
      <point x="1020" y="1059" type="line"/>
      <point x="1020" y="1082" type="line"/>
      <point x="819" y="1082" type="line"/>
      <point x="320" y="544" type="line"/>
      <point x="326" y="765" type="line"/>
      <point x="326" y="1082" type="line"/>
      <point x="152" y="1082" type="line"/>
    </contour>
  </outline>
</glyph>
<glyph name="uni0237" format="1">
  <advance width="595"/>
  <unicode hex="0237"/>
  <outline>
    <contour>
      <point x="336" y="1081" type="move" name="top"/>
    </contour>
    <contour>
      <point x="241" y="1082" type="line"/>
      <point x="241" y="19" type="line" smooth="yes"/>
      <point x="241" y="-167"/>
      <point x="237" y="-204"/>
      <point x="86" y="-238" type="curve" smooth="yes"/>
      <point x="21" y="-253" type="line"/>
      <point x="50" y="-395" type="line"/>
      <point x="112" y="-385" type="line"/>
      <point x="336" y="-350"/>
      <point x="423" y="-275"/>
      <point x="423" y="-12" type="curve" smooth="yes"/>
      <point x="423" y="1082" type="line"/>
    </contour>
  </outline>
</glyph>
<glyph name="uni0259" format="1">
  <advance width="1143"/>
  <unicode hex="0259"/>
  <outline>
    <contour>
      <point x="864" y="459" type="line"/>
      <point x="845" y="247"/>
      <point x="723" y="115"/>
      <point x="548" y="115" type="curve" smooth="yes"/>
      <point x="375" y="115"/>
      <point x="294" y="242"/>
      <point x="291" y="459" type="curve"/>
    </contour>
    <contour>
      <point x="144" y="577" type="line"/>
      <point x="144" y="574"/>
      <point x="135" y="497"/>
      <point x="135" y="466" type="curve" smooth="yes"/>
      <point x="135" y="166"/>
      <point x="292" y="-20"/>
      <point x="557" y="-20" type="curve" smooth="yes"/>
      <point x="830" y="-20"/>
      <point x="1053" y="188"/>
      <point x="1053" y="548" type="curve" smooth="yes"/>
      <point x="1053" y="895"/>
      <point x="828" y="1106"/>
      <point x="535" y="1106" type="curve" smooth="yes"/>
      <point x="383" y="1106"/>
      <point x="254" y="1061"/>
      <point x="165" y="999" type="curve"/>
      <point x="207" y="880" type="line"/>
      <point x="220" y="880" type="line"/>
      <point x="309" y="931"/>
      <point x="388" y="971"/>
      <point x="512" y="971" type="curve" smooth="yes"/>
      <point x="706" y="971"/>
      <point x="851" y="853"/>
      <point x="867" y="577" type="curve"/>
    </contour>
  </outline>
</glyph>
<glyph name="circumflex" format="1">
  <advance width="886"/>
  <unicode hex="02C6"/>
  <outline>
    <contour>
      <point x="434" y="1082" type="move" name="_top"/>
    </contour>
    <contour>
      <point x="136" y="1251" type="line"/>
      <point x="293" y="1251" type="line"/>
      <point x="430" y="1480" type="line"/>
      <point x="565" y="1251" type="line"/>
      <point x="722" y="1251" type="line"/>
      <point x="526" y="1598" type="line"/>
      <point x="333" y="1598" type="line"/>
    </contour>
  </outline>
</glyph>
<glyph name="breve" format="1">
  <advance width="874"/>
  <unicode hex="02D8"/>
  <outline>
    <contour>
      <point x="427" y="1066" type="move" name="_top"/>
    </contour>
    <contour>
      <point x="423" y="1288" type="curve" smooth="yes"/>
      <point x="562" y="1288"/>
      <point x="670" y="1367"/>
      <point x="670" y="1532" type="curve"/>
      <point x="555" y="1532" type="line"/>
      <point x="555" y="1441"/>
      <point x="487" y="1401"/>
      <point x="423" y="1401" type="curve" smooth="yes"/>
      <point x="360" y="1401"/>
      <point x="296" y="1441"/>
      <point x="296" y="1532" type="curve"/>
      <point x="179" y="1532" type="line"/>
      <point x="179" y="1367"/>
      <point x="285" y="1288"/>
    </contour>
  </outline>
</glyph>
<glyph name="dotaccent" format="1">
  <advance width="453"/>
  <unicode hex="02D9"/>
  <outline>
    <contour>
      <point x="225" y="1082" type="move" name="_top"/>
    </contour>
    <contour>
      <point x="358" y="1431" type="curve" smooth="yes"/>
      <point x="358" y="1508"/>
      <point x="310" y="1556"/>
      <point x="226" y="1556" type="curve" smooth="yes"/>
      <point x="142" y="1556"/>
      <point x="94" y="1508"/>
      <point x="94" y="1431" type="curve" smooth="yes"/>
      <point x="94" y="1351"/>
      <point x="142" y="1302"/>
      <point x="226" y="1302" type="curve" smooth="yes"/>
      <point x="310" y="1302"/>
      <point x="358" y="1351"/>
    </contour>
  </outline>
</glyph>
<glyph name="hungarumlaut" format="1">
  <advance width="813"/>
  <unicode hex="02DD"/>
  <outline>
    <contour>
      <point x="346" y="1066" type="move" name="_top"/>
    </contour>
    <contour>
      <point x="435" y="1247" type="line"/>
      <point x="543" y="1247" type="line"/>
      <point x="768" y="1598" type="line"/>
      <point x="584" y="1598" type="line"/>
    </contour>
    <contour>
      <point x="157" y="1247" type="line"/>
      <point x="268" y="1247" type="line"/>
      <point x="455" y="1598" type="line"/>
      <point x="288" y="1598" type="line"/>
    </contour>
  </outline>
</glyph>
<glyph name="uni0311" format="1">
  <advance width="797"/>
  <unicode hex="0311"/>
  <outline>
    <contour>
      <point x="411" y="1066" type="move" name="_top"/>
    </contour>
    <contour>
      <point x="163" y="1288" type="curve"/>
      <point x="280" y="1288" type="line"/>
      <point x="280" y="1378"/>
      <point x="344" y="1419"/>
      <point x="407" y="1419" type="curve" smooth="yes"/>
      <point x="470" y="1419"/>
      <point x="539" y="1378"/>
      <point x="539" y="1288" type="curve"/>
      <point x="653" y="1288" type="line"/>
      <point x="653" y="1452"/>
      <point x="545" y="1532"/>
      <point x="407" y="1532" type="curve" smooth="yes"/>
      <point x="269" y="1532"/>
      <point x="163" y="1453"/>
    </contour>
  </outline>
</glyph>
<glyph name="uni0326" format="1">
  <advance width="611"/>
  <unicode hex="0326"/>
  <outline>
    <contour>
      <point x="329" y="0" type="move" name="_bot"/>
    </contour>
    <contour>
      <point x="194" y="-523" type="curve"/>
      <point x="316" y="-523" type="line"/>
      <point x="316" y="-523"/>
      <point x="416" y="-176"/>
      <point x="415" y="-134" type="curve"/>
      <point x="241" y="-134" type="line"/>
      <point x="241" y="-203"/>
      <point x="194" y="-523"/>
    </contour>
  </outline>
</glyph>
<glyph name="uni0358" format="1">
  <advance width="437"/>
  <unicode hex="0358"/>
  <outline>
    <contour>
      <point x="351" y="1452" type="curve" smooth="yes"/>
      <point x="351" y="1527"/>
      <point x="305" y="1571"/>
      <point x="224" y="1571" type="curve" smooth="yes"/>
      <point x="143" y="1571"/>
      <point x="97" y="1527"/>
      <point x="97" y="1452" type="curve" smooth="yes"/>
      <point x="97" y="1375"/>
      <point x="143" y="1330"/>
      <point x="224" y="1330" type="curve" smooth="yes"/>
      <point x="305" y="1330"/>
      <point x="351" y="1375"/>
    </contour>
  </outline>
</glyph>
<glyph name="emdash" format="1">
  <advance width="2128"/>
  <unicode hex="2014"/>
  <outline>
    <contour>
      <point x="60" y="515" type="line"/>
      <point x="2068" y="515" type="line"/>
      <point x="2068" y="658" type="line"/>
      <point x="60" y="658" type="line"/>
    </contour>
  </outline>
</glyph>
<glyph name="quoteleft" format="1">
  <advance width="525"/>
  <unicode hex="2018"/>
  <outline>
    <contour>
      <point x="397" y="1503" type="line"/>
      <point x="268" y="1503" type="line"/>
      <point x="158" y="1019" type="line"/>
      <point x="351" y="1019" type="line"/>
    </contour>
  </outline>
</glyph>
<glyph name="quoteright" format="1">
  <advance width="525"/>
  <unicode hex="2019"/>
  <outline>
    <contour>
      <point x="158" y="1019" type="line"/>
      <point x="288" y="1019" type="line"/>
      <point x="397" y="1503" type="line"/>
      <point x="204" y="1503" type="line"/>
    </contour>
  </outline>
</glyph>
<glyph name="quotedblleft" format="1">
  <advance width="906"/>
  <unicode hex="201C"/>
  <outline>
    <contour>
      <point x="512" y="1019" type="line"/>
      <point x="705" y="1019" type="line"/>
      <point x="751" y="1503" type="line"/>
      <point x="621" y="1503" type="line"/>
    </contour>
    <contour>
      <point x="158" y="1019" type="line"/>
      <point x="351" y="1019" type="line"/>
      <point x="397" y="1503" type="line"/>
      <point x="268" y="1503" type="line"/>
    </contour>
  </outline>
</glyph>
<glyph name="quotedblright" format="1">
  <advance width="906"/>
  <unicode hex="201D"/>
  <outline>
    <contour>
      <point x="158" y="1019" type="line"/>
      <point x="288" y="1019" type="line"/>
      <point x="397" y="1503" type="line"/>
      <point x="204" y="1503" type="line"/>
    </contour>
    <contour>
      <point x="512" y="1019" type="line"/>
      <point x="641" y="1019" type="line"/>
      <point x="751" y="1503" type="line"/>
      <point x="558" y="1503" type="line"/>
    </contour>
  </outline>
</glyph>
<glyph name="quotedblbase" format="1">
  <advance width="765"/>
  <unicode hex="201E"/>
  <outline>
    <contour>
      <point x="419" y="-313" type="line"/>
      <point x="536" y="-313" type="line"/>
      <point x="646" y="161" type="line"/>
      <point x="467" y="161" type="line"/>
    </contour>
    <contour>
      <point x="109" y="-313" type="line"/>
      <point x="229" y="-313" type="line"/>
      <point x="335" y="161" type="line"/>
      <point x="160" y="161" type="line"/>
    </contour>
  </outline>
</glyph>
<glyph name="dagger" format="1">
  <advance width="1060"/>
  <unicode hex="2020"/>
  <outline>
    <contour>
      <point x="461" y="1491" type="line"/>
      <point x="461" y="1109" type="line"/>
      <point x="173" y="1109" type="line"/>
      <point x="173" y="998" type="line"/>
      <point x="461" y="998" type="line"/>
      <point x="461" y="97" type="line"/>
      <point x="590" y="97" type="line"/>
      <point x="590" y="998" type="line"/>
      <point x="884" y="998" type="line"/>
      <point x="884" y="1109" type="line"/>
      <point x="589" y="1109" type="line"/>
      <point x="589" y="1491" type="line"/>
    </contour>
  </outline>
</glyph>
<glyph name="daggerdbl" format="1">
  <advance width="1032"/>
  <unicode hex="2021"/>
  <outline>
    <contour>
      <point x="458" y="1473" type="line"/>
      <point x="458" y="1089" type="line"/>
      <point x="179" y="1089" type="line"/>
      <point x="179" y="980" type="line"/>
      <point x="458" y="980" type="line"/>
      <point x="458" y="549" type="line"/>
      <point x="179" y="549" type="line"/>
      <point x="179" y="444" type="line"/>
      <point x="458" y="444" type="line"/>
      <point x="458" y="58" type="line"/>
      <point x="588" y="58" type="line"/>
      <point x="588" y="444" type="line"/>
      <point x="864" y="444" type="line"/>
      <point x="864" y="549" type="line"/>
      <point x="589" y="549" type="line"/>
      <point x="589" y="980" type="line"/>
      <point x="865" y="980" type="line"/>
      <point x="865" y="1089" type="line"/>
      <point x="585" y="1089" type="line"/>
      <point x="585" y="1473" type="line"/>
    </contour>
  </outline>
</glyph>
<glyph name="bullet" format="1">
  <advance width="913"/>
  <unicode hex="2022"/>
  <outline>
    <contour>
      <point x="445" y="407" type="curve" smooth="yes"/>
      <point x="614" y="407"/>
      <point x="767" y="531"/>
      <point x="767" y="741" type="curve" smooth="yes"/>
      <point x="767" y="950"/>
      <point x="618" y="1071"/>
      <point x="451" y="1071" type="curve" smooth="yes"/>
      <point x="282" y="1071"/>
      <point x="130" y="946"/>
      <point x="130" y="736" type="curve" smooth="yes"/>
      <point x="130" y="528"/>
      <point x="278" y="407"/>
    </contour>
  </outline>
</glyph>
<glyph name="perthousand" format="1">
  <advance width="2339"/>
  <unicode hex="2030"/>
  <outline>
    <component base="percent" xOffset="14"/>
    <contour>
      <point x="1873" y="-4" type="curve" smooth="yes"/>
      <point x="2100" y="-4"/>
      <point x="2184" y="164"/>
      <point x="2184" y="381" type="curve" smooth="yes"/>
      <point x="2184" y="602"/>
      <point x="2103" y="765"/>
      <point x="1873" y="765" type="curve" smooth="yes"/>
      <point x="1649" y="765"/>
      <point x="1563" y="599"/>
      <point x="1563" y="381" type="curve" smooth="yes"/>
      <point x="1563" y="164"/>
      <point x="1645" y="-4"/>
    </contour>
    <contour>
      <point x="1875" y="100" type="curve" smooth="yes"/>
      <point x="1722" y="100"/>
      <point x="1689" y="220"/>
      <point x="1689" y="382" type="curve" smooth="yes"/>
      <point x="1689" y="540"/>
      <point x="1722" y="660"/>
      <point x="1875" y="660" type="curve" smooth="yes"/>
      <point x="2026" y="660"/>
      <point x="2058" y="546"/>
      <point x="2058" y="382" type="curve" smooth="yes"/>
      <point x="2058" y="224"/>
      <point x="2027" y="100"/>
    </contour>
  </outline>
</glyph>
<glyph name="guilsinglleft" format="1">
  <advance width="629"/>
  <unicode hex="2039"/>
  <outline>
    <contour>
      <point x="380" y="150" type="line"/>
      <point x="541" y="150" type="line"/>
      <point x="267" y="556" type="line"/>
      <point x="549" y="961" type="line"/>
      <point x="384" y="961" type="line"/>
      <point x="97" y="553" type="line"/>
    </contour>
  </outline>
</glyph>
<glyph name="guilsinglright" format="1">
  <advance width="766"/>
  <unicode hex="203A"/>
  <outline>
    <contour>
      <point x="154" y="150" type="line"/>
      <point x="317" y="150" type="line"/>
      <point x="609" y="571" type="line"/>
      <point x="314" y="1000" type="line"/>
      <point x="150" y="1000" type="line"/>
      <point x="432" y="571" type="line"/>
    </contour>
  </outline>
</glyph>
<glyph name="fraction" format="1">
  <advance width="1043"/>
  <unicode hex="2044"/>
  <outline>
    <contour>
      <point x="128" y="0" type="line"/>
      <point x="278" y="0" type="line"/>
      <point x="929" y="1467" type="line"/>
      <point x="776" y="1467" type="line"/>
    </contour>
  </outline>
</glyph>
<glyph name="Euro" format="1">
  <advance width="1391"/>
  <unicode hex="20AC"/>
  <outline>
    <component base="C" xOffset="-75"/>
    <contour>
      <point x="-53" y="528" type="line"/>
      <point x="808" y="528" type="line"/>
      <point x="815" y="643" type="line"/>
      <point x="216" y="643" type="line"/>
      <point x="216" y="817" type="line"/>
      <point x="815" y="817" type="line"/>
      <point x="822" y="930" type="line"/>
      <point x="-41" y="930" type="line"/>
      <point x="-46" y="817" type="line"/>
      <point x="122" y="817" type="line"/>
      <point x="122" y="643" type="line"/>
      <point x="-46" y="643" type="line"/>
    </contour>
  </outline>
</glyph>
<glyph name="afii61289" format="1">
  <advance width="1218"/>
  <unicode hex="2113"/>
  <outline>
    <contour>
      <point x="632" y="804" type="line"/>
      <point x="729" y="1178" type="line" smooth="yes"/>
      <point x="773" y="1350"/>
      <point x="789" y="1493"/>
      <point x="905" y="1528" type="curve" smooth="yes"/>
      <point x="928" y="1535"/>
      <point x="948" y="1538"/>
      <point x="967" y="1538" type="curve" smooth="yes"/>
      <point x="1061" y="1538"/>
      <point x="1102" y="1459"/>
      <point x="1102" y="1385" type="curve" smooth="yes"/>
      <point x="1102" y="1216"/>
      <point x="1002" y="1097"/>
      <point x="842" y="970" type="curve" smooth="yes"/>
    </contour>
    <contour>
      <point x="304" y="264" type="curve" smooth="yes"/>
      <point x="304" y="63"/>
      <point x="406" y="-20"/>
      <point x="562" y="-20" type="curve" smooth="yes"/>
      <point x="789" y="-20"/>
      <point x="940" y="98"/>
      <point x="940" y="98" type="curve"/>
      <point x="916" y="221" type="line"/>
      <point x="813" y="166"/>
      <point x="723" y="133"/>
      <point x="642" y="133" type="curve" smooth="yes"/>
      <point x="555" y="133"/>
      <point x="515" y="178"/>
      <point x="515" y="270" type="curve" smooth="yes"/>
      <point x="515" y="310"/>
      <point x="522" y="359"/>
      <point x="537" y="417" type="curve" smooth="yes"/>
      <point x="589" y="629" type="line"/>
      <point x="883" y="865" type="line" smooth="yes"/>
      <point x="1127" y="1060"/>
      <point x="1222" y="1176"/>
      <point x="1222" y="1386" type="curve" smooth="yes"/>
      <point x="1222" y="1593"/>
      <point x="1075" y="1688"/>
      <point x="922" y="1689" type="curve" smooth="yes"/>
      <point x="786" y="1689"/>
      <point x="646" y="1622"/>
      <point x="584" y="1396" type="curve" smooth="yes"/>
      <point x="379" y="639" type="line"/>
      <point x="79" y="414" type="line"/>
      <point x="125" y="334" type="line"/>
      <point x="339" y="493" type="line"/>
      <point x="315" y="405"/>
      <point x="304" y="328"/>
    </contour>
  </outline>
</glyph>
<glyph name="trademark" format="1">
  <advance width="2201"/>
  <unicode hex="2122"/>
  <outline>
    <contour>
      <point x="391" y="522" type="line"/>
      <point x="537" y="522" type="line"/>
      <point x="537" y="1338" type="line"/>
      <point x="849" y="1338" type="line"/>
      <point x="849" y="1456" type="line"/>
      <point x="81" y="1456" type="line"/>
      <point x="81" y="1338" type="line"/>
      <point x="391" y="1338" type="line"/>
    </contour>
    <contour>
      <point x="974" y="522" type="line"/>
      <point x="1105" y="522" type="line"/>
      <point x="1111" y="1267" type="line"/>
      <point x="1414" y="633" type="line"/>
      <point x="1517" y="633" type="line"/>
      <point x="1821" y="1259" type="line"/>
      <point x="1828" y="522" type="line"/>
      <point x="1957" y="522" type="line"/>
      <point x="1940" y="1456" type="line"/>
      <point x="1791" y="1456" type="line"/>
      <point x="1467" y="794" type="line"/>
      <point x="1144" y="1456" type="line"/>
      <point x="991" y="1456" type="line"/>
    </contour>
  </outline>
</glyph>
<glyph name="estimated" format="1">
  <advance width="1218"/>
  <unicode hex="212E"/>
  <outline>
    <contour>
      <point x="1004" y="600" type="curve"/>
      <point x="325" y="600" type="line"/>
      <point x="340" y="861"/>
      <point x="487" y="1039"/>
      <point x="659" y="1039" type="curve" smooth="yes"/>
      <point x="868" y="1039"/>
      <point x="1004" y="834"/>
    </contour>
    <contour>
      <point x="102" y="540" type="curve" smooth="yes"/>
      <point x="102" y="221"/>
      <point x="289" y="-20"/>
      <point x="671" y="-20" type="curve" smooth="yes"/>
      <point x="878" y="-20"/>
      <point x="1013" y="70"/>
      <point x="1112" y="188" type="curve"/>
      <point x="1061" y="239" type="line"/>
      <point x="963" y="134"/>
      <point x="851" y="53"/>
      <point x="671" y="53" type="curve" smooth="yes"/>
      <point x="442" y="53"/>
      <point x="324" y="244"/>
      <point x="323" y="520" type="curve"/>
      <point x="1120" y="520" type="line"/>
      <point x="1120" y="867"/>
      <point x="973" y="1099"/>
      <point x="653" y="1099" type="curve" smooth="yes"/>
      <point x="331" y="1099"/>
      <point x="102" y="859"/>
    </contour>
  </outline>
</glyph>
<glyph name="Delta" format="1">
  <advance width="1283"/>
  <unicode hex="2206"/>
  <outline>
    <contour>
      <point x="672" y="1196" type="line"/>
      <point x="1022" y="174" type="line"/>
      <point x="262" y="174" type="line"/>
      <point x="606" y="1196" type="line"/>
      <point x="638" y="1314" type="line"/>
    </contour>
    <contour>
      <point x="549" y="1542" type="line"/>
      <point x="66" y="85" type="line"/>
      <point x="66" y="0" type="line"/>
      <point x="1219" y="0" type="line"/>
      <point x="1219" y="85" type="line"/>
      <point x="736" y="1542" type="line"/>
    </contour>
  </outline>
</glyph>
<glyph name="product" format="1">
  <advance width="1538"/>
  <unicode hex="220F"/>
  <outline>
    <contour>
      <point x="199" y="1500" type="line"/>
      <point x="199" y="0" type="line"/>
      <point x="372" y="0" type="line"/>
      <point x="372" y="1349" type="line"/>
      <point x="1168" y="1349" type="line"/>
      <point x="1168" y="0" type="line"/>
      <point x="1341" y="0" type="line"/>
      <point x="1341" y="1500" type="line"/>
    </contour>
  </outline>
</glyph>
<glyph name="minus" format="1">
  <advance width="1169"/>
  <unicode hex="2212"/>
  <outline>
    <contour>
      <point x="104" y="666" type="line"/>
      <point x="104" y="522" type="line"/>
      <point x="1070" y="522" type="line"/>
      <point x="1070" y="666" type="line"/>
    </contour>
  </outline>
</glyph>
<glyph name="radical" format="1">
  <advance width="1158"/>
  <unicode hex="221A"/>
  <outline>
    <contour>
      <point x="998" y="1705" type="line"/>
      <point x="876" y="1193"/>
      <point x="721" y="571"/>
      <point x="600" y="60" type="curve"/>
      <point x="512" y="348"/>
      <point x="407" y="619"/>
      <point x="310" y="899" type="curve"/>
      <point x="49" y="837" type="line"/>
      <point x="64" y="716" type="line"/>
      <point x="212" y="748" type="line"/>
      <point x="539" y="-163" type="line"/>
      <point x="688" y="-163" type="line"/>
      <point x="1125" y="1705" type="line"/>
    </contour>
  </outline>
</glyph>
<glyph name="integral" format="1">
  <advance width="971"/>
  <unicode hex="222B"/>
  <outline>
    <contour>
      <point x="509" y="1156" type="curve" smooth="yes"/>
      <point x="509" y="-40" type="line" smooth="yes"/>
      <point x="509" y="-206"/>
      <point x="484" y="-309"/>
      <point x="354" y="-309" type="curve" smooth="yes"/>
      <point x="327" y="-309"/>
      <point x="294" y="-305"/>
      <point x="258" y="-295" type="curve"/>
      <point x="258" y="-405" type="line"/>
      <point x="301" y="-415"/>
      <point x="341" y="-419"/>
      <point x="375" y="-419" type="curve" smooth="yes"/>
      <point x="561" y="-419"/>
      <point x="641" y="-282"/>
      <point x="641" y="-32" type="curve" smooth="yes"/>
      <point x="641" y="1165" type="line" smooth="yes"/>
      <point x="641" y="1325"/>
      <point x="666" y="1423"/>
      <point x="782" y="1423" type="curve" smooth="yes"/>
      <point x="809" y="1423"/>
      <point x="839" y="1418"/>
      <point x="874" y="1407" type="curve"/>
      <point x="874" y="1512" type="line"/>
      <point x="827" y="1523"/>
      <point x="786" y="1528"/>
      <point x="751" y="1528" type="curve" smooth="yes"/>
      <point x="575" y="1528"/>
      <point x="509" y="1401"/>
    </contour>
  </outline>
</glyph>
<glyph name="lessequal" format="1">
  <advance width="1192"/>
  <unicode hex="2264"/>
  <outline>
    <contour>
      <point x="127" y="7" type="line"/>
      <point x="1061" y="7" type="line"/>
      <point x="1061" y="136" type="line"/>
      <point x="127" y="137" type="line"/>
    </contour>
    <contour>
      <point x="1034" y="244" type="line"/>
      <point x="1034" y="389" type="line"/>
      <point x="330" y="763" type="line"/>
      <point x="1030" y="1161" type="line"/>
      <point x="1030" y="1308" type="line"/>
      <point x="146" y="805" type="line"/>
      <point x="146" y="720" type="line"/>
    </contour>
  </outline>
</glyph>
<glyph name="greaterequal" format="1">
  <advance width="1192"/>
  <unicode hex="2265"/>
  <outline>
    <contour>
      <point x="129" y="8" type="line"/>
      <point x="1063" y="8" type="line"/>
      <point x="1063" y="138" type="line"/>
      <point x="129" y="137" type="line"/>
    </contour>
    <contour>
      <point x="157" y="234" type="line"/>
      <point x="1045" y="715" type="line"/>
      <point x="1045" y="800" type="line"/>
      <point x="160" y="1309" type="line"/>
      <point x="160" y="1161" type="line"/>
      <point x="865" y="758" type="line"/>
      <point x="157" y="380" type="line"/>
    </contour>
  </outline>
</glyph>
<glyph name="caron.alt" format="1">
  <advance width="735"/>
  <outline>
    <contour>
      <point x="216" y="1082" type="move" name="_caron.alt"/>
    </contour>
    <contour>
      <point x="462" y="1159" type="line"/>
      <point x="595" y="1159" type="line"/>
      <point x="675" y="1542" type="line"/>
      <point x="497" y="1542" type="line"/>
    </contour>
  </outline>
</glyph>
<glyph name="slashbar" format="1">
  <advance width="854"/>
  <outline>
    <contour>
      <point x="184" y="486" type="line"/>
      <point x="777" y="811" type="line"/>
      <point x="777" y="944" type="line"/>
      <point x="184" y="619" type="line"/>
    </contour>
    <contour>
      <point x="481" y="715" type="move" name="_mid"/>
    </contour>
  </outline>
</glyph>
